<?xml version="1.0" encoding="UTF-8"?>
<!DOCTYPE svg PUBLIC "-//W3C//DTD SVG 1.1//EN" "http://www.w3.org/Graphics/SVG/1.1/DTD/svg11.dtd">
<svg xmlns="http://www.w3.org/2000/svg" version="1.1" width="570px" height="570px" style="shape-rendering:geometricPrecision; text-rendering:geometricPrecision; image-rendering:optimizeQuality; fill-rule:evenodd; clip-rule:evenodd" xmlns:xlink="http://www.w3.org/1999/xlink">
<g><path style="opacity:0.749" fill="#1b3f67" d="M 326.5,66.5 C 360.337,66.1684 394.004,66.5017 427.5,67.5C 392.457,67.18 357.457,67.5134 322.5,68.5C 323.287,66.8958 324.62,66.2291 326.5,66.5 Z"/></g>
<g><path style="opacity:0.998" fill="#012856" d="M 427.5,67.5 C 428.5,68.1667 429.5,68.8333 430.5,69.5C 431.449,79.1141 431.782,88.7807 431.5,98.5C 430.167,100.167 428.833,101.833 427.5,103.5C 417.167,103.5 406.833,103.5 396.5,103.5C 396.829,109.537 396.496,115.537 395.5,121.5C 394.712,122.77 393.712,123.77 392.5,124.5C 382.161,124.666 371.828,124.5 361.5,124C 360.255,123.209 358.922,122.709 357.5,122.5C 356.87,116.066 356.203,109.733 355.5,103.5C 345.341,102.67 335.008,102.17 324.5,102C 323.756,100.961 322.756,100.461 321.5,100.5C 321.167,99.5 320.5,98.8333 319.5,98.5C 319.334,89.4938 319.5,80.4938 320,71.5C 320.377,70.0577 321.21,69.0577 322.5,68.5C 357.457,67.5134 392.457,67.18 427.5,67.5 Z"/></g>
<g><path style="opacity:0.102" fill="#aebac8" d="M 326.5,66.5 C 326.5,66.1667 326.5,65.8333 326.5,65.5C 361.506,65.1668 396.506,65.5001 431.5,66.5C 433.445,76.9783 434.111,87.645 433.5,98.5C 433.167,98.5 432.833,98.5 432.5,98.5C 432.666,89.1607 432.5,79.8274 432,70.5C 431.617,69.944 431.117,69.6107 430.5,69.5C 429.5,68.8333 428.5,68.1667 427.5,67.5C 394.004,66.5017 360.337,66.1684 326.5,66.5 Z"/></g>
<g><path style="opacity:0.249" fill="#d9dee5" d="M 326.5,65.5 C 326.5,65.8333 326.5,66.1667 326.5,66.5C 324.62,66.2291 323.287,66.8958 322.5,68.5C 321.21,69.0577 320.377,70.0577 320,71.5C 319.5,80.4938 319.334,89.4938 319.5,98.5C 319.427,100.027 320.094,101.027 321.5,101.5C 322.5,102.167 323.5,102.833 324.5,103.5C 334.833,104.167 345.167,104.833 355.5,105.5C 344.147,105.832 332.814,105.499 321.5,104.5C 320.5,103.5 319.5,102.5 318.5,101.5C 317.167,90.8333 317.167,80.1667 318.5,69.5C 320.407,66.6053 323.074,65.272 326.5,65.5 Z"/></g>
<g><path style="opacity:0.749" fill="#2c4b71" d="M 430.5,69.5 C 431.117,69.6107 431.617,69.944 432,70.5C 432.5,79.8274 432.666,89.1607 432.5,98.5C 432.167,98.5 431.833,98.5 431.5,98.5C 431.782,88.7807 431.449,79.1141 430.5,69.5 Z"/></g>
<g><path style="opacity:0.353" fill="#9eadbe" d="M 319.5,98.5 C 320.5,98.8333 321.167,99.5 321.5,100.5C 321.5,100.833 321.5,101.167 321.5,101.5C 320.094,101.027 319.427,100.027 319.5,98.5 Z"/></g>
<g><path style="opacity:0.486" fill="#97a6b9" d="M 431.5,98.5 C 431.833,98.5 432.167,98.5 432.5,98.5C 431.833,101.167 430.167,102.833 427.5,103.5C 428.833,101.833 430.167,100.167 431.5,98.5 Z"/></g>
<g><path style="opacity:1" fill="#193b65" d="M 321.5,101.5 C 321.5,101.167 321.5,100.833 321.5,100.5C 322.756,100.461 323.756,100.961 324.5,102C 335.008,102.17 345.341,102.67 355.5,103.5C 345.167,103.5 334.833,103.5 324.5,103.5C 323.5,102.833 322.5,102.167 321.5,101.5 Z"/></g>
<g><path style="opacity:0.749" fill="#657d98" d="M 324.5,103.5 C 334.833,103.5 345.167,103.5 355.5,103.5C 356.203,109.733 356.87,116.066 357.5,122.5C 357.5,122.833 357.5,123.167 357.5,123.5C 356.833,123.167 356.167,122.833 355.5,122.5C 355.5,116.833 355.5,111.167 355.5,105.5C 345.167,104.833 334.833,104.167 324.5,103.5 Z"/></g>
<g><path style="opacity:0.251" fill="#bcc5d1" d="M 432.5,98.5 C 432.833,98.5 433.167,98.5 433.5,98.5C 433.771,100.821 433.104,102.821 431.5,104.5C 420.186,105.499 408.853,105.832 397.5,105.5C 398.078,112.713 397.412,119.713 395.5,126.5C 382.833,127.833 370.167,127.833 357.5,126.5C 356.147,125.476 355.48,124.143 355.5,122.5C 356.167,122.833 356.833,123.167 357.5,123.5C 358.289,123.783 358.956,124.283 359.5,125C 370.674,125.826 381.674,125.659 392.5,124.5C 393.712,123.77 394.712,122.77 395.5,121.5C 396.496,115.537 396.829,109.537 396.5,103.5C 406.833,103.5 417.167,103.5 427.5,103.5C 430.167,102.833 431.833,101.167 432.5,98.5 Z"/></g>
<g><path style="opacity:0.655" fill="#677d99" d="M 254.5,121.5 C 257.833,121.5 261.167,121.5 264.5,121.5C 265.6,122.605 266.267,123.938 266.5,125.5C 262.671,122.31 258.338,121.643 253.5,123.5C 253.833,122.833 254.167,122.167 254.5,121.5 Z"/></g>
<g><path style="opacity:0.991" fill="#042a57" d="M 266.5,125.5 C 268.745,128.32 270.745,131.32 272.5,134.5C 272.685,136.196 273.519,137.529 275,138.5C 275.495,140.473 275.662,142.473 275.5,144.5C 274.797,146.716 273.464,148.549 271.5,150C 265.033,153.979 259.033,158.479 253.5,163.5C 251.596,163.738 250.262,164.738 249.5,166.5C 247.596,166.738 246.262,167.738 245.5,169.5C 243.973,169.427 242.973,170.094 242.5,171.5C 240.596,171.738 239.262,172.738 238.5,174.5C 236.973,174.427 235.973,175.094 235.5,176.5C 234.833,176.5 234.5,176.833 234.5,177.5C 232.167,177.5 229.833,177.5 227.5,177.5C 223.756,171.687 219.756,166.02 215.5,160.5C 214.589,155.633 215.922,151.633 219.5,148.5C 221.404,148.262 222.738,147.262 223.5,145.5C 225.55,143.453 227.883,141.786 230.5,140.5C 232.404,140.262 233.738,139.262 234.5,137.5C 236.404,137.262 237.738,136.262 238.5,134.5C 240.147,132.674 242.147,131.34 244.5,130.5C 246.749,129.92 248.415,128.587 249.5,126.5C 250.436,125.026 251.77,124.026 253.5,123.5C 258.338,121.643 262.671,122.31 266.5,125.5 Z"/></g>
<g><path style="opacity:0.997" fill="#1c3e67" d="M 357.5,123.5 C 357.5,123.167 357.5,122.833 357.5,122.5C 358.922,122.709 360.255,123.209 361.5,124C 371.828,124.5 382.161,124.666 392.5,124.5C 381.674,125.659 370.674,125.826 359.5,125C 358.956,124.283 358.289,123.783 357.5,123.5 Z"/></g>
<g><path style="opacity:0.788" fill="#395479" d="M 249.5,126.5 C 248.415,128.587 246.749,129.92 244.5,130.5C 245.585,128.413 247.251,127.08 249.5,126.5 Z"/></g>
<g><path style="opacity:0.58" fill="#516b8b" d="M 238.5,134.5 C 237.738,136.262 236.404,137.262 234.5,137.5C 235.262,135.738 236.596,134.738 238.5,134.5 Z"/></g>
<g><path style="opacity:0.788" fill="#405a7e" d="M 272.5,134.5 C 276.424,137.002 277.424,140.336 275.5,144.5C 275.662,142.473 275.495,140.473 275,138.5C 273.519,137.529 272.685,136.196 272.5,134.5 Z"/></g>
<g><path style="opacity:0.092" fill="#e7ebee" d="M 254.5,121.5 C 254.167,122.167 253.833,122.833 253.5,123.5C 251.77,124.026 250.436,125.026 249.5,126.5C 247.251,127.08 245.585,128.413 244.5,130.5C 242.147,131.34 240.147,132.674 238.5,134.5C 236.596,134.738 235.262,135.738 234.5,137.5C 232.596,137.738 231.262,138.738 230.5,140.5C 227.883,141.786 225.55,143.453 223.5,145.5C 221.596,145.738 220.262,146.738 219.5,148.5C 216.885,149.45 214.885,151.117 213.5,153.5C 214.218,149.758 216.218,146.758 219.5,144.5C 229.855,137.655 239.855,130.322 249.5,122.5C 251.045,121.548 252.712,121.215 254.5,121.5 Z"/></g>
<g><path style="opacity:0.251" fill="#a3b1c2" d="M 352.5,137.5 C 350.833,138.167 349.167,138.833 347.5,139.5C 346.5,139.5 345.5,139.5 344.5,139.5C 344.167,139.5 343.833,139.5 343.5,139.5C 345.988,137.612 348.988,136.945 352.5,137.5 Z"/></g>
<g><path style="opacity:0.251" fill="#24456d" d="M 352.5,137.5 C 365.833,137.5 379.167,137.5 392.5,137.5C 392.5,137.833 392.5,138.167 392.5,138.5C 377.483,138.311 362.483,138.645 347.5,139.5C 349.167,138.833 350.833,138.167 352.5,137.5 Z"/></g>
<g><path style="opacity:0.251" fill="#8698ae" d="M 392.5,138.5 C 392.5,138.167 392.5,137.833 392.5,137.5C 395.167,137.5 397.833,137.5 400.5,137.5C 402.833,138.167 405.167,138.833 407.5,139.5C 402.493,139.249 397.493,138.916 392.5,138.5 Z"/></g>
<g><path style="opacity:0.063" fill="#e8ebf0" d="M 400.5,137.5 C 404.012,136.945 407.012,137.612 409.5,139.5C 409.167,139.5 408.833,139.5 408.5,139.5C 408.167,139.5 407.833,139.5 407.5,139.5C 405.167,138.833 402.833,138.167 400.5,137.5 Z"/></g>
<g><path style="opacity:0.749" fill="#4b6586" d="M 234.5,137.5 C 233.738,139.262 232.404,140.262 230.5,140.5C 231.262,138.738 232.596,137.738 234.5,137.5 Z"/></g>
<g><path style="opacity:0.998" fill="#012856" d="M 392.5,138.5 C 397.493,138.916 402.493,139.249 407.5,139.5C 407.833,139.5 408.167,139.5 408.5,139.5C 410.102,141.074 412.102,141.741 414.5,141.5C 418.5,142.167 422.5,142.833 426.5,143.5C 432.352,145.673 438.352,147.673 444.5,149.5C 444.973,150.906 445.973,151.573 447.5,151.5C 448.167,151.5 448.833,151.5 449.5,151.5C 449.973,152.906 450.973,153.573 452.5,153.5C 453.609,153.557 454.609,153.89 455.5,154.5C 460.311,157.07 465.311,159.403 470.5,161.5C 470.973,162.906 471.973,163.573 473.5,163.5C 480.158,167.83 486.825,172.164 493.5,176.5C 494.911,178.914 496.911,180.581 499.5,181.5C 506.14,187.473 512.473,193.806 518.5,200.5C 519.08,202.749 520.413,204.415 522.5,205.5C 523.419,208.089 525.086,210.089 527.5,211.5C 529.262,212.262 530.262,213.596 530.5,215.5C 530.427,217.027 531.094,218.027 532.5,218.5C 533.488,219.795 534.488,221.128 535.5,222.5C 535.427,224.027 536.094,225.027 537.5,225.5C 538.338,225.842 538.672,226.508 538.5,227.5C 538.738,229.404 539.738,230.738 541.5,231.5C 542.674,232.514 543.34,233.847 543.5,235.5C 543.599,238.639 544.932,240.973 547.5,242.5C 547.157,244.483 547.824,245.817 549.5,246.5C 549.796,248.403 550.463,250.07 551.5,251.5C 552.338,251.842 552.672,252.508 552.5,253.5C 552.796,255.403 553.463,257.07 554.5,258.5C 554.259,260.898 554.926,262.898 556.5,264.5C 558.025,267.583 559.025,270.916 559.5,274.5C 559.259,276.898 559.926,278.898 561.5,280.5C 561.41,283.152 562.076,285.485 563.5,287.5C 564.088,290.61 564.755,293.61 565.5,296.5C 566.01,299.983 566.677,303.316 567.5,306.5C 567.5,320.167 567.5,333.833 567.5,347.5C 566.662,347.842 566.328,348.508 566.5,349.5C 565.111,354.269 564.444,359.269 564.5,364.5C 563.232,366.905 562.565,369.572 562.5,372.5C 562.483,374.565 562.15,376.565 561.5,378.5C 559.926,380.102 559.259,382.102 559.5,384.5C 558.629,387.112 557.963,389.779 557.5,392.5C 555.755,394.033 554.755,396.033 554.5,398.5C 553.883,401.355 552.883,404.022 551.5,406.5C 549.597,409.979 547.93,413.646 546.5,417.5C 545.326,418.514 544.66,419.847 544.5,421.5C 543.094,421.973 542.427,422.973 542.5,424.5C 540.11,427.566 538.11,430.9 536.5,434.5C 535.094,434.973 534.427,435.973 534.5,437.5C 533.094,437.973 532.427,438.973 532.5,440.5C 531.094,440.973 530.427,441.973 530.5,443.5C 528.738,444.262 527.738,445.596 527.5,447.5C 525.413,448.585 524.08,450.251 523.5,452.5C 517.528,458.807 511.528,465.14 505.5,471.5C 502.573,472.757 500.239,474.757 498.5,477.5C 496.251,478.08 494.585,479.413 493.5,481.5C 490.883,482.786 488.55,484.453 486.5,486.5C 484.596,486.738 483.262,487.738 482.5,489.5C 480.326,489.75 478.659,490.75 477.5,492.5C 475.973,492.427 474.973,493.094 474.5,494.5C 466.764,499.035 458.764,503.035 450.5,506.5C 448.302,506.12 446.635,506.787 445.5,508.5C 440.521,509.569 435.854,511.235 431.5,513.5C 424.071,515.193 416.738,516.859 409.5,518.5C 406.833,518.5 404.167,518.5 401.5,518.5C 387.516,519.318 373.516,519.651 359.5,519.5C 353.792,519.16 348.125,518.493 342.5,517.5C 338.79,515.864 334.79,515.198 330.5,515.5C 330.167,515.5 329.833,515.5 329.5,515.5C 326.495,513.723 323.162,512.723 319.5,512.5C 312.578,510.773 305.911,508.44 299.5,505.5C 298.833,505.5 298.167,505.5 297.5,505.5C 296.341,503.75 294.674,502.75 292.5,502.5C 292.027,501.094 291.027,500.427 289.5,500.5C 289.027,499.094 288.027,498.427 286.5,498.5C 284.847,498.34 283.514,497.674 282.5,496.5C 282.027,495.094 281.027,494.427 279.5,494.5C 278.508,494.672 277.842,494.338 277.5,493.5C 277.027,492.094 276.027,491.427 274.5,491.5C 270.849,490.341 267.515,488.674 264.5,486.5C 264.027,485.094 263.027,484.427 261.5,484.5C 259.5,484.167 257.5,483.833 255.5,483.5C 255.082,482.778 254.416,482.278 253.5,482C 211.998,481.833 170.665,481.333 129.5,480.5C 126.859,478.872 124.192,477.206 121.5,475.5C 120.026,474.564 119.026,473.23 118.5,471.5C 117.646,465.879 117.313,460.212 117.5,454.5C 120.833,451.833 123.833,448.833 126.5,445.5C 188.145,444.681 249.812,444.181 311.5,444C 313.32,443.8 314.653,442.966 315.5,441.5C 315.833,441.5 316.167,441.5 316.5,441.5C 318.027,441.573 319.027,440.906 319.5,439.5C 322.517,436.802 324.517,433.469 325.5,429.5C 326.645,425.689 326.812,421.689 326,417.5C 324.97,415.654 323.804,413.987 322.5,412.5C 321.958,409.081 319.958,407.414 316.5,407.5C 316.5,406.833 316.167,406.5 315.5,406.5C 314.653,405.034 313.32,404.2 311.5,404C 261.834,403.5 212.168,403.333 162.5,403.5C 161.167,403.5 159.833,403.5 158.5,403.5C 157.415,401.413 155.749,400.08 153.5,399.5C 151.076,396.992 149.41,393.992 148.5,390.5C 148.335,387.15 148.502,383.817 149,380.5C 150.413,378.348 151.246,376.014 151.5,373.5C 153.573,371.42 155.907,369.754 158.5,368.5C 175.961,367.86 193.295,367.193 210.5,366.5C 211.959,366.567 213.292,366.234 214.5,365.5C 216.027,365.573 217.027,364.906 217.5,363.5C 219.833,361.833 221.833,359.833 223.5,357.5C 225.067,356.319 225.901,354.653 226,352.5C 226.812,348.311 226.645,344.311 225.5,340.5C 224.89,338.566 223.89,336.899 222.5,335.5C 221.833,332.833 220.167,331.167 217.5,330.5C 215.299,329.434 212.965,328.767 210.5,328.5C 153.98,327.817 97.3129,327.151 40.5,326.5C 40.0269,325.094 39.0269,324.427 37.5,324.5C 37.0269,323.094 36.0269,322.427 34.5,322.5C 29.9047,316.71 28.238,310.044 29.5,302.5C 30.9063,302.027 31.573,301.027 31.5,299.5C 33.8333,297.833 35.8333,295.833 37.5,293.5C 39.612,291.794 41.9453,290.461 44.5,289.5C 123.5,289.5 202.5,289.5 281.5,289.5C 286.351,288.659 290.684,286.659 294.5,283.5C 295.906,283.027 296.573,282.027 296.5,280.5C 297.906,280.027 298.573,279.027 298.5,277.5C 299.744,272.702 299.744,268.035 298.5,263.5C 298.573,261.973 297.906,260.973 296.5,260.5C 296.167,259.833 295.833,259.167 295.5,258.5C 294.5,255.5 292.5,253.5 289.5,252.5C 288.234,251.91 286.901,251.41 285.5,251C 234.811,250.815 184.145,250.315 133.5,249.5C 132.738,247.738 131.404,246.738 129.5,246.5C 125.977,244.127 123.977,240.793 123.5,236.5C 123.437,231.797 123.771,227.13 124.5,222.5C 127.167,220.5 129.5,218.167 131.5,215.5C 147.995,215.044 164.329,214.044 180.5,212.5C 180.5,212.167 180.5,211.833 180.5,211.5C 183.5,211.5 186.5,211.5 189.5,211.5C 190.833,211.5 192.167,211.5 193.5,211.5C 197.163,211.048 200.83,210.548 204.5,210C 205.416,209.722 206.082,209.222 206.5,208.5C 212.314,207.297 217.981,205.63 223.5,203.5C 224.873,203.657 226.207,203.49 227.5,203C 229.431,202.098 231.097,200.931 232.5,199.5C 239.267,195.946 245.934,192.113 252.5,188C 260.729,181.591 269.063,175.425 277.5,169.5C 279.749,168.92 281.415,167.587 282.5,165.5C 284.404,165.262 285.738,164.262 286.5,162.5C 287.899,161.11 289.566,160.11 291.5,159.5C 293.966,158.702 295.966,157.369 297.5,155.5C 299.027,155.573 300.027,154.906 300.5,153.5C 301.391,152.89 302.391,152.557 303.5,152.5C 305.027,152.573 306.027,151.906 306.5,150.5C 309.649,150.585 312.316,149.585 314.5,147.5C 315.514,146.326 316.847,145.66 318.5,145.5C 322.162,145.277 325.495,144.277 328.5,142.5C 329.919,141.549 331.585,141.216 333.5,141.5C 337.36,141.192 341.026,140.525 344.5,139.5C 345.5,139.5 346.5,139.5 347.5,139.5C 362.483,138.645 377.483,138.311 392.5,138.5 Z M 431.5,199.5 C 431.843,201.483 431.176,202.817 429.5,203.5C 429.157,201.517 429.824,200.183 431.5,199.5 Z M 431.5,199.5 C 431.639,197.663 432.306,197.33 433.5,198.5C 433.043,199.298 432.376,199.631 431.5,199.5 Z M 427.5,203.5 C 428.167,203.5 428.833,203.5 429.5,203.5C 428.833,206.167 428.167,206.167 427.5,203.5 Z M 443.5,205.5 C 443.639,203.663 444.306,203.33 445.5,204.5C 445.043,205.298 444.376,205.631 443.5,205.5 Z M 443.5,205.5 C 444.376,205.631 445.043,205.298 445.5,204.5C 444.306,203.33 443.639,203.663 443.5,205.5 Z M 425.5,209.5 C 425.639,207.663 426.306,207.33 427.5,208.5C 427.043,209.298 426.376,209.631 425.5,209.5 Z M 423.5,209.5 C 424.167,209.5 424.833,209.5 425.5,209.5C 425.843,211.483 425.176,212.817 423.5,213.5C 423.5,212.5 423.5,211.5 423.5,210.5C 423.5,210.167 423.5,209.833 423.5,209.5 Z M 439.5,211.5 C 439.639,209.663 440.306,209.33 441.5,210.5C 441.043,211.298 440.376,211.631 439.5,211.5 Z M 457.5,209.5 C 457.5,210.167 457.5,210.833 457.5,211.5C 456.833,211.5 456.167,211.5 455.5,211.5C 455.5,210.167 456.167,209.5 457.5,209.5 Z M 437.5,211.5 C 438.167,211.5 438.833,211.5 439.5,211.5C 439.843,213.483 439.176,214.817 437.5,215.5C 437.5,214.5 437.5,213.5 437.5,212.5C 437.5,212.167 437.5,211.833 437.5,211.5 Z M 455.5,211.5 C 455.5,212.833 454.833,213.5 453.5,213.5C 453.5,212.167 454.167,211.5 455.5,211.5 Z M 423.5,213.5 C 423.843,215.483 423.176,216.817 421.5,217.5C 421.157,215.517 421.824,214.183 423.5,213.5 Z M 451.5,213.5 C 452.167,213.5 452.833,213.5 453.5,213.5C 453.843,215.483 453.176,216.817 451.5,217.5C 451.5,216.5 451.5,215.5 451.5,214.5C 451.5,214.167 451.5,213.833 451.5,213.5 Z M 437.5,215.5 C 437.843,217.483 437.176,218.817 435.5,219.5C 435.157,217.517 435.824,216.183 437.5,215.5 Z M 419.5,217.5 C 420.167,217.5 420.833,217.5 421.5,217.5C 421.5,218.833 420.833,219.5 419.5,219.5C 419.5,218.833 419.5,218.167 419.5,217.5 Z M 451.5,217.5 C 451.843,219.483 451.176,220.817 449.5,221.5C 449.157,219.517 449.824,218.183 451.5,217.5 Z M 417.5,219.5 C 418.167,219.5 418.833,219.5 419.5,219.5C 419.843,221.483 419.176,222.817 417.5,223.5C 417.5,222.167 417.5,220.833 417.5,219.5 Z M 433.5,219.5 C 434.167,219.5 434.833,219.5 435.5,219.5C 434.833,222.167 434.167,222.167 433.5,219.5 Z M 449.5,221.5 C 449.5,222.833 448.833,223.5 447.5,223.5C 447.5,222.167 448.167,221.5 449.5,221.5 Z M 417.5,223.5 C 417.5,225.167 417.5,226.833 417.5,228.5C 417.5,229.5 417.5,230.5 417.5,231.5C 417.5,232.833 417.5,234.167 417.5,235.5C 420.698,236.036 423.365,235.369 425.5,233.5C 426.833,232.167 428.167,230.833 429.5,229.5C 429.5,231.167 429.5,232.833 429.5,234.5C 429.5,235.167 429.5,235.833 429.5,236.5C 429.5,237.167 429.5,237.833 429.5,238.5C 429.5,239.5 429.5,240.5 429.5,241.5C 432.167,241.5 434.833,241.5 437.5,241.5C 436.782,245.242 434.782,248.242 431.5,250.5C 430.311,251.429 428.978,251.762 427.5,251.5C 425.833,251.5 424.167,251.5 422.5,251.5C 420.007,251.976 418.007,253.31 416.5,255.5C 405.833,274.167 395.167,292.833 384.5,311.5C 384.167,313.167 383.833,314.833 383.5,316.5C 384.833,320.5 386.167,324.5 387.5,328.5C 386.167,332.5 384.833,336.5 383.5,340.5C 383.833,342.167 384.167,343.833 384.5,345.5C 387.672,349.841 390.339,354.508 392.5,359.5C 393.265,360.612 394.265,361.279 395.5,361.5C 399.311,370.344 403.645,379.011 408.5,387.5C 409.265,388.612 410.265,389.279 411.5,389.5C 412.589,393.686 414.256,397.686 416.5,401.5C 421.965,408.981 426.631,416.981 430.5,425.5C 431.265,426.612 432.265,427.279 433.5,427.5C 438.833,438.167 444.167,448.833 449.5,459.5C 439.506,451.172 430.506,441.839 422.5,431.5C 416.415,421.662 410.082,411.996 403.5,402.5C 404.853,401.476 405.52,400.143 405.5,398.5C 405.5,396.833 405.5,395.167 405.5,393.5C 403.741,387.976 401.408,382.642 398.5,377.5C 393.668,368.499 388.335,359.832 382.5,351.5C 380.917,349.01 379.917,346.343 379.5,343.5C 375.445,343.824 371.445,343.491 367.5,342.5C 364.5,339.5 361.5,336.5 358.5,333.5C 357.509,329.555 357.176,325.555 357.5,321.5C 361.55,318.107 365.55,314.774 369.5,311.5C 371.833,311.5 374.167,311.5 376.5,311.5C 378.143,311.52 379.476,310.853 380.5,309.5C 384.5,302.833 388.5,296.167 392.5,289.5C 394.744,285.686 396.411,281.686 397.5,277.5C 398.833,277.5 399.5,276.833 399.5,275.5C 404.788,268.953 409.122,261.62 412.5,253.5C 414.371,246.916 413.371,240.916 409.5,235.5C 410.754,233.666 411.421,231.666 411.5,229.5C 413.956,227.887 415.956,225.887 417.5,223.5 Z M 431.5,225.5 C 431.639,223.663 432.306,223.33 433.5,224.5C 433.043,225.298 432.376,225.631 431.5,225.5 Z M 445.5,223.5 C 446.167,223.5 446.833,223.5 447.5,223.5C 447.843,225.483 447.176,226.817 445.5,227.5C 445.5,226.5 445.5,225.5 445.5,224.5C 445.5,224.167 445.5,223.833 445.5,223.5 Z M 429.5,225.5 C 430.167,225.5 430.833,225.5 431.5,225.5C 431.843,227.483 431.176,228.817 429.5,229.5C 429.5,228.5 429.5,227.5 429.5,226.5C 429.5,226.167 429.5,225.833 429.5,225.5 Z M 445.5,227.5 C 445.843,229.483 445.176,230.817 443.5,231.5C 443.157,229.517 443.824,228.183 445.5,227.5 Z M 441.5,231.5 C 442.167,231.5 442.833,231.5 443.5,231.5C 443.843,233.483 443.176,234.817 441.5,235.5C 441.5,234.167 441.5,232.833 441.5,231.5 Z M 441.5,235.5 C 441.5,236.833 440.833,237.5 439.5,237.5C 439.5,236.167 440.167,235.5 441.5,235.5 Z M 437.5,237.5 C 438.167,237.5 438.833,237.5 439.5,237.5C 439.843,239.483 439.176,240.817 437.5,241.5C 437.5,240.5 437.5,239.5 437.5,238.5C 437.5,238.167 437.5,237.833 437.5,237.5 Z M 449.5,459.5 C 451.337,459.639 451.67,460.306 450.5,461.5C 449.702,461.043 449.369,460.376 449.5,459.5 Z"/></g>
<g><path style="opacity:0.084" fill="#e6e9ed" d="M 336.5,139.5 C 335.5,140.167 334.5,140.833 333.5,141.5C 331.585,141.216 329.919,141.549 328.5,142.5C 326.139,142.674 323.806,143.007 321.5,143.5C 323.025,141.964 325.025,140.964 327.5,140.5C 330.428,139.516 333.428,139.183 336.5,139.5 Z"/></g>
<g><path style="opacity:0.749" fill="#536d8c" d="M 336.5,139.5 C 338.833,139.5 341.167,139.5 343.5,139.5C 343.833,139.5 344.167,139.5 344.5,139.5C 341.026,140.525 337.36,141.192 333.5,141.5C 334.5,140.833 335.5,140.167 336.5,139.5 Z"/></g>
<g><path style="opacity:0.655" fill="#607795" d="M 408.5,139.5 C 408.833,139.5 409.167,139.5 409.5,139.5C 410.5,139.5 411.5,139.5 412.5,139.5C 413.167,140.167 413.833,140.833 414.5,141.5C 412.102,141.741 410.102,141.074 408.5,139.5 Z"/></g>
<g><path style="opacity:0.282" fill="#aebac9" d="M 412.5,139.5 C 416.285,139.631 419.952,140.298 423.5,141.5C 424.5,142.167 425.5,142.833 426.5,143.5C 422.5,142.833 418.5,142.167 414.5,141.5C 413.833,140.833 413.167,140.167 412.5,139.5 Z"/></g>
<g><path style="opacity:0.084" fill="#f1f3f5" d="M 423.5,141.5 C 426.082,141.025 428.082,141.692 429.5,143.5C 428.5,143.5 427.5,143.5 426.5,143.5C 425.5,142.833 424.5,142.167 423.5,141.5 Z"/></g>
<g><path style="opacity:0.627" fill="#526c8b" d="M 328.5,142.5 C 325.495,144.277 322.162,145.277 318.5,145.5C 319.5,144.833 320.5,144.167 321.5,143.5C 323.806,143.007 326.139,142.674 328.5,142.5 Z"/></g>
<g><path style="opacity:0.639" fill="#4e6888" d="M 223.5,145.5 C 222.738,147.262 221.404,148.262 219.5,148.5C 220.262,146.738 221.596,145.738 223.5,145.5 Z"/></g>
<g><path style="opacity:0.875" fill="#445e81" d="M 314.5,147.5 C 312.316,149.585 309.649,150.585 306.5,150.5C 308.684,148.415 311.351,147.415 314.5,147.5 Z"/></g>
<g><path style="opacity:0.51" fill="#576e8e" d="M 219.5,148.5 C 215.922,151.633 214.589,155.633 215.5,160.5C 214.833,159.833 214.167,159.167 213.5,158.5C 213.5,156.833 213.5,155.167 213.5,153.5C 214.885,151.117 216.885,149.45 219.5,148.5 Z"/></g>
<g><path style="opacity:0.094" fill="#d5dbe2" d="M 426.5,143.5 C 427.5,143.5 428.5,143.5 429.5,143.5C 435.636,144.544 441.636,146.21 447.5,148.5C 449.332,149.057 450.665,150.057 451.5,151.5C 450.833,151.5 450.167,151.5 449.5,151.5C 448.833,151.5 448.167,151.5 447.5,151.5C 447.027,150.094 446.027,149.427 444.5,149.5C 438.352,147.673 432.352,145.673 426.5,143.5 Z"/></g>
<g><path style="opacity:0.502" fill="#57708f" d="M 444.5,149.5 C 446.027,149.427 447.027,150.094 447.5,151.5C 445.973,151.573 444.973,150.906 444.5,149.5 Z"/></g>
<g><path style="opacity:0.627" fill="#486384" d="M 306.5,150.5 C 306.027,151.906 305.027,152.573 303.5,152.5C 303.973,151.094 304.973,150.427 306.5,150.5 Z"/></g>
<g><path style="opacity:0.086" fill="#e8ecf0" d="M 451.5,151.5 C 455.606,151.304 458.939,152.637 461.5,155.5C 459.565,154.85 457.565,154.517 455.5,154.5C 454.609,153.89 453.609,153.557 452.5,153.5C 452.167,152.833 451.833,152.167 451.5,151.5 Z"/></g>
<g><path style="opacity:0.655" fill="#556e8c" d="M 449.5,151.5 C 450.167,151.5 450.833,151.5 451.5,151.5C 451.833,152.167 452.167,152.833 452.5,153.5C 450.973,153.573 449.973,152.906 449.5,151.5 Z"/></g>
<g><path style="opacity:0.749" fill="#597290" d="M 300.5,153.5 C 300.027,154.906 299.027,155.573 297.5,155.5C 297.973,154.094 298.973,153.427 300.5,153.5 Z"/></g>
<g><path style="opacity:0.141" fill="#dde1e7" d="M 264.5,121.5 C 265.675,121.281 266.675,121.614 267.5,122.5C 269.743,126.748 272.743,130.414 276.5,133.5C 277.833,138.833 277.833,144.167 276.5,149.5C 268.346,156.076 260.013,162.409 251.5,168.5C 250.311,169.429 248.978,169.762 247.5,169.5C 248.167,168.5 248.833,167.5 249.5,166.5C 251.404,166.262 252.738,165.262 253.5,163.5C 259.033,158.479 265.033,153.979 271.5,150C 273.464,148.549 274.797,146.716 275.5,144.5C 277.424,140.336 276.424,137.002 272.5,134.5C 270.745,131.32 268.745,128.32 266.5,125.5C 266.267,123.938 265.6,122.605 264.5,121.5 Z"/></g>
<g><path style="opacity:0.722" fill="#465f81" d="M 297.5,155.5 C 295.966,157.369 293.966,158.702 291.5,159.5C 292.802,157.178 294.802,155.845 297.5,155.5 Z"/></g>
<g><path style="opacity:0.424" fill="#95a5b9" d="M 470.5,161.5 C 472.027,161.427 473.027,162.094 473.5,163.5C 471.973,163.573 470.973,162.906 470.5,161.5 Z"/></g>
<g><path style="opacity:0.58" fill="#4b6587" d="M 286.5,162.5 C 285.738,164.262 284.404,165.262 282.5,165.5C 283.262,163.738 284.596,162.738 286.5,162.5 Z"/></g>
<g><path style="opacity:0.361" fill="#9caabc" d="M 253.5,163.5 C 252.738,165.262 251.404,166.262 249.5,166.5C 250.262,164.738 251.596,163.738 253.5,163.5 Z"/></g>
<g><path style="opacity:0.353" fill="#a3b1c2" d="M 249.5,166.5 C 248.833,167.5 248.167,168.5 247.5,169.5C 246.833,169.5 246.167,169.5 245.5,169.5C 246.262,167.738 247.596,166.738 249.5,166.5 Z"/></g>
<g><path style="opacity:0.796" fill="#334f75" d="M 282.5,165.5 C 281.415,167.587 279.749,168.92 277.5,169.5C 278.585,167.413 280.251,166.08 282.5,165.5 Z"/></g>
<g><path style="opacity:0.361" fill="#a1afc0" d="M 245.5,169.5 C 245.027,170.906 244.027,171.573 242.5,171.5C 242.973,170.094 243.973,169.427 245.5,169.5 Z"/></g>
<g><path style="opacity:0.105" fill="#e8ecf0" d="M 213.5,158.5 C 214.167,159.167 214.833,159.833 215.5,160.5C 219.756,166.02 223.756,171.687 227.5,177.5C 226.022,177.762 224.689,177.429 223.5,176.5C 221.892,172.957 219.558,169.957 216.5,167.5C 214.664,164.748 213.664,161.748 213.5,158.5 Z"/></g>
<g><path style="opacity:0.067" fill="#f5f6f8" d="M 245.5,169.5 C 246.167,169.5 246.833,169.5 247.5,169.5C 246.554,172.313 244.554,173.646 241.5,173.5C 241.833,172.833 242.167,172.167 242.5,171.5C 244.027,171.573 245.027,170.906 245.5,169.5 Z"/></g>
<g><path style="opacity:0.251" fill="#92a1b4" d="M 242.5,171.5 C 242.167,172.167 241.833,172.833 241.5,173.5C 240.609,174.11 239.609,174.443 238.5,174.5C 239.262,172.738 240.596,171.738 242.5,171.5 Z"/></g>
<g><path style="opacity:0.306" fill="#99a8bb" d="M 238.5,174.5 C 238.027,175.906 237.027,176.573 235.5,176.5C 235.973,175.094 236.973,174.427 238.5,174.5 Z"/></g>
<g><path style="opacity:0.055" fill="#eef0f3" d="M 241.5,173.5 C 240.256,176.543 237.923,177.876 234.5,177.5C 234.5,176.833 234.833,176.5 235.5,176.5C 237.027,176.573 238.027,175.906 238.5,174.5C 239.609,174.443 240.609,174.11 241.5,173.5 Z"/></g>
<g><path style="opacity:0.092" fill="#e6eaee" d="M 321.5,143.5 C 320.5,144.167 319.5,144.833 318.5,145.5C 316.847,145.66 315.514,146.326 314.5,147.5C 311.351,147.415 308.684,148.415 306.5,150.5C 304.973,150.427 303.973,151.094 303.5,152.5C 302.391,152.557 301.391,152.89 300.5,153.5C 298.973,153.427 297.973,154.094 297.5,155.5C 294.802,155.845 292.802,157.178 291.5,159.5C 289.566,160.11 287.899,161.11 286.5,162.5C 284.596,162.738 283.262,163.738 282.5,165.5C 280.251,166.08 278.585,167.413 277.5,169.5C 269.063,175.425 260.729,181.591 252.5,188C 245.934,192.113 239.267,195.946 232.5,199.5C 229.053,200.083 226.053,201.416 223.5,203.5C 217.981,205.63 212.314,207.297 206.5,208.5C 203.518,208.963 200.518,209.296 197.5,209.5C 212.62,205.671 227.287,200.004 241.5,192.5C 257.5,180.5 273.5,168.5 289.5,156.5C 297.5,152.5 305.5,148.5 313.5,144.5C 316.086,143.52 318.753,143.187 321.5,143.5 Z"/></g>
<g><path style="opacity:0.353" fill="#a5b3c3" d="M 493.5,176.5 C 496.089,177.419 498.089,179.086 499.5,181.5C 496.911,180.581 494.911,178.914 493.5,176.5 Z"/></g>
<g><path style="opacity:0.024" fill="#d7dce3" d="M 455.5,154.5 C 457.565,154.517 459.565,154.85 461.5,155.5C 465.686,156.589 469.686,158.256 473.5,160.5C 480.833,165.167 488.167,169.833 495.5,174.5C 503.907,182.571 511.907,190.904 519.5,199.5C 519.5,199.833 519.5,200.167 519.5,200.5C 519.167,200.5 518.833,200.5 518.5,200.5C 512.473,193.806 506.14,187.473 499.5,181.5C 498.089,179.086 496.089,177.419 493.5,176.5C 486.825,172.164 480.158,167.83 473.5,163.5C 473.027,162.094 472.027,161.427 470.5,161.5C 465.311,159.403 460.311,157.07 455.5,154.5 Z"/></g>
<g><path style="opacity:0.502" fill="#91a1b6" d="M 430.5,195.5 C 430.573,197.027 429.906,198.027 428.5,198.5C 428.427,196.973 429.094,195.973 430.5,195.5 Z"/></g>
<g><path style="opacity:0.627" fill="#50698a" d="M 232.5,199.5 C 231.097,200.931 229.431,202.098 227.5,203C 226.207,203.49 224.873,203.657 223.5,203.5C 226.053,201.416 229.053,200.083 232.5,199.5 Z"/></g>
<g><path style="opacity:0.51" fill="#51698a" d="M 518.5,200.5 C 518.833,200.5 519.167,200.5 519.5,200.5C 520.925,201.922 521.925,203.589 522.5,205.5C 520.413,204.415 519.08,202.749 518.5,200.5 Z"/></g>
<g><path style="opacity:0.251" fill="#a3b0c1" d="M 428.5,198.5 C 427.962,200.117 427.629,201.784 427.5,203.5C 426.833,203.5 426.167,203.5 425.5,203.5C 425.75,201.326 426.75,199.659 428.5,198.5 Z"/></g>
<g><path style="opacity:0.098" fill="#eceff2" d="M 432.5,204.5 C 430.412,206.336 429.079,208.669 428.5,211.5C 426.412,213.336 425.079,215.669 424.5,218.5C 422.412,220.336 421.079,222.669 420.5,225.5C 419.272,226.306 418.272,227.306 417.5,228.5C 417.5,226.833 417.5,225.167 417.5,223.5C 419.176,222.817 419.843,221.483 419.5,219.5C 420.833,219.5 421.5,218.833 421.5,217.5C 423.176,216.817 423.843,215.483 423.5,213.5C 425.176,212.817 425.843,211.483 425.5,209.5C 424.833,209.5 424.167,209.5 423.5,209.5C 424.363,207.579 425.029,205.579 425.5,203.5C 426.167,203.5 426.833,203.5 427.5,203.5C 427.629,201.784 427.962,200.117 428.5,198.5C 429.906,198.027 430.573,197.027 430.5,195.5C 431.601,194.402 432.934,194.235 434.5,195C 435.059,195.725 435.392,196.558 435.5,197.5C 434.233,199.703 433.233,202.037 432.5,204.5 Z M 431.5,199.5 C 431.843,201.483 431.176,202.817 429.5,203.5C 429.157,201.517 429.824,200.183 431.5,199.5 Z M 431.5,199.5 C 432.376,199.631 433.043,199.298 433.5,198.5C 432.306,197.33 431.639,197.663 431.5,199.5 Z M 427.5,203.5 C 428.167,203.5 428.833,203.5 429.5,203.5C 428.833,206.167 428.167,206.167 427.5,203.5 Z M 425.5,209.5 C 426.376,209.631 427.043,209.298 427.5,208.5C 426.306,207.33 425.639,207.663 425.5,209.5 Z"/></g>
<g><path style="opacity:0.099" fill="#edf0f3" d="M 446.5,202.5 C 446.483,204.565 446.15,206.565 445.5,208.5C 443.75,209.659 442.75,211.326 442.5,213.5C 440.412,215.336 439.079,217.669 438.5,220.5C 436.412,222.336 435.079,224.669 434.5,227.5C 432.588,229.657 430.921,231.991 429.5,234.5C 429.5,232.833 429.5,231.167 429.5,229.5C 431.176,228.817 431.843,227.483 431.5,225.5C 430.833,225.5 430.167,225.5 429.5,225.5C 430.363,223.579 431.029,221.579 431.5,219.5C 432.167,219.5 432.833,219.5 433.5,219.5C 434.167,222.167 434.833,222.167 435.5,219.5C 437.176,218.817 437.843,217.483 437.5,215.5C 439.176,214.817 439.843,213.483 439.5,211.5C 438.833,211.5 438.167,211.5 437.5,211.5C 437.833,210.167 438.167,208.833 438.5,207.5C 440.408,206.514 441.408,204.848 441.5,202.5C 443.167,201.167 444.833,201.167 446.5,202.5 Z M 443.5,205.5 C 444.376,205.631 445.043,205.298 445.5,204.5C 444.306,203.33 443.639,203.663 443.5,205.5 Z M 443.5,205.5 C 444.376,205.631 445.043,205.298 445.5,204.5C 444.306,203.33 443.639,203.663 443.5,205.5 Z M 439.5,211.5 C 440.376,211.631 441.043,211.298 441.5,210.5C 440.306,209.33 439.639,209.663 439.5,211.5 Z M 433.5,219.5 C 434.167,219.5 434.833,219.5 435.5,219.5C 434.833,222.167 434.167,222.167 433.5,219.5 Z M 431.5,225.5 C 432.376,225.631 433.043,225.298 433.5,224.5C 432.306,223.33 431.639,223.663 431.5,225.5 Z"/></g>
<g><path style="opacity:0.306" fill="#adb9c8" d="M 441.5,202.5 C 441.408,204.848 440.408,206.514 438.5,207.5C 438.75,205.326 439.75,203.659 441.5,202.5 Z"/></g>
<g><path style="opacity:0.282" fill="#a2afc1" d="M 425.5,203.5 C 425.029,205.579 424.363,207.579 423.5,209.5C 423.5,209.833 423.5,210.167 423.5,210.5C 422.833,210.5 422.167,210.5 421.5,210.5C 422.079,207.669 423.412,205.336 425.5,203.5 Z"/></g>
<g><path style="opacity:0.882" fill="#425b7f" d="M 446.5,202.5 C 447.147,203.274 447.48,204.274 447.5,205.5C 447.36,207.03 446.693,208.03 445.5,208.5C 446.15,206.565 446.483,204.565 446.5,202.5 Z"/></g>
<g><path style="opacity:0.104" fill="#ebeef1" d="M 519.5,199.5 C 528.415,205.336 534.415,213.336 537.5,223.5C 536.833,223.167 536.167,222.833 535.5,222.5C 534.488,221.128 533.488,219.795 532.5,218.5C 532.573,216.973 531.906,215.973 530.5,215.5C 530.262,213.596 529.262,212.262 527.5,211.5C 526.581,208.911 524.914,206.911 522.5,205.5C 521.925,203.589 520.925,201.922 519.5,200.5C 519.5,200.167 519.5,199.833 519.5,199.5 Z"/></g>
<g><path style="opacity:0.796" fill="#415a7e" d="M 432.5,204.5 C 432.264,207.621 430.931,209.954 428.5,211.5C 429.079,208.669 430.412,206.336 432.5,204.5 Z"/></g>
<g><path style="opacity:1" fill="#455f82" d="M 206.5,208.5 C 206.082,209.222 205.416,209.722 204.5,210C 200.83,210.548 197.163,211.048 193.5,211.5C 194.5,210.833 195.5,210.167 196.5,209.5C 196.833,209.5 197.167,209.5 197.5,209.5C 200.518,209.296 203.518,208.963 206.5,208.5 Z"/></g>
<g><path style="opacity:0.125" fill="#e0e5eb" d="M 457.5,208.5 C 457.5,208.833 457.5,209.167 457.5,209.5C 456.167,209.5 455.5,210.167 455.5,211.5C 454.167,211.5 453.5,212.167 453.5,213.5C 452.833,213.5 452.167,213.5 451.5,213.5C 452.167,211.833 452.833,210.167 453.5,208.5C 454.833,207.167 456.167,207.167 457.5,208.5 Z"/></g>
<g><path style="opacity:0.647" fill="#4f6889" d="M 522.5,205.5 C 524.914,206.911 526.581,208.911 527.5,211.5C 525.086,210.089 523.419,208.089 522.5,205.5 Z"/></g>
<g><path style="opacity:0.376" fill="#a1afc0" d="M 196.5,209.5 C 195.5,210.167 194.5,210.833 193.5,211.5C 192.167,211.5 190.833,211.5 189.5,211.5C 191.279,209.656 193.612,208.99 196.5,209.5 Z"/></g>
<g><path style="opacity:0.086" fill="#f8f9fa" d="M 421.5,210.5 C 422.167,210.5 422.833,210.5 423.5,210.5C 423.5,211.5 423.5,212.5 423.5,213.5C 421.824,214.183 421.157,215.517 421.5,217.5C 420.833,217.5 420.167,217.5 419.5,217.5C 420.167,215.167 420.833,212.833 421.5,210.5 Z"/></g>
<g><path style="opacity:0.125" fill="#aab6c6" d="M 438.5,207.5 C 438.167,208.833 437.833,210.167 437.5,211.5C 437.5,211.833 437.5,212.167 437.5,212.5C 436.778,213.551 435.778,214.218 434.5,214.5C 435.079,211.669 436.412,209.336 438.5,207.5 Z"/></g>
<g><path style="opacity:0.906" fill="#465e81" d="M 445.5,208.5 C 445.408,210.848 444.408,212.514 442.5,213.5C 442.75,211.326 443.75,209.659 445.5,208.5 Z"/></g>
<g><path style="opacity:0.096" fill="#e6e9ed" d="M 180.5,211.5 C 180.5,211.833 180.5,212.167 180.5,212.5C 165.83,212.333 151.163,212.5 136.5,213C 134.347,213.099 132.681,213.933 131.5,215.5C 128.167,216.833 125.833,219.167 124.5,222.5C 123.326,223.514 122.66,224.847 122.5,226.5C 122.167,226.5 121.833,226.5 121.5,226.5C 121.885,219.731 125.218,215.064 131.5,212.5C 147.82,211.501 164.153,211.167 180.5,211.5 Z"/></g>
<g><path style="opacity:1" fill="#314d74" d="M 180.5,212.5 C 164.329,214.044 147.995,215.044 131.5,215.5C 132.681,213.933 134.347,213.099 136.5,213C 151.163,212.5 165.83,212.333 180.5,212.5 Z"/></g>
<g><path style="opacity:0.125" fill="#b1bdcb" d="M 453.5,208.5 C 452.833,210.167 452.167,211.833 451.5,213.5C 451.5,213.833 451.5,214.167 451.5,214.5C 450.833,214.5 450.167,214.5 449.5,214.5C 449.845,211.802 451.178,209.802 453.5,208.5 Z"/></g>
<g><path style="opacity:0.306" fill="#adb9c8" d="M 421.5,210.5 C 420.833,212.833 420.167,215.167 419.5,217.5C 419.5,218.167 419.5,218.833 419.5,219.5C 418.833,219.5 418.167,219.5 417.5,219.5C 416.9,220.9 415.9,221.9 414.5,222.5C 416.332,218.164 418.665,214.164 421.5,210.5 Z"/></g>
<g><path style="opacity:0.086" fill="#f6f7f9" d="M 449.5,214.5 C 450.167,214.5 450.833,214.5 451.5,214.5C 451.5,215.5 451.5,216.5 451.5,217.5C 449.824,218.183 449.157,219.517 449.5,221.5C 448.167,221.5 447.5,222.167 447.5,223.5C 446.833,223.5 446.167,223.5 445.5,223.5C 445.833,222.167 446.167,220.833 446.5,219.5C 448.408,218.514 449.408,216.848 449.5,214.5 Z"/></g>
<g><path style="opacity:0.514" fill="#657c98" d="M 457.5,208.5 C 458.147,209.274 458.48,210.274 458.5,211.5C 458.66,213.355 457.993,214.688 456.5,215.5C 456.833,214.167 457.167,212.833 457.5,211.5C 457.5,210.833 457.5,210.167 457.5,209.5C 457.5,209.167 457.5,208.833 457.5,208.5 Z"/></g>
<g><path style="opacity:0.875" fill="#3f587c" d="M 428.5,211.5 C 428.264,214.621 426.931,216.954 424.5,218.5C 425.079,215.669 426.412,213.336 428.5,211.5 Z"/></g>
<g><path style="opacity:0.125" fill="#f8f9fa" d="M 437.5,212.5 C 437.5,213.5 437.5,214.5 437.5,215.5C 435.824,216.183 435.157,217.517 435.5,219.5C 434.833,219.5 434.167,219.5 433.5,219.5C 433.629,217.784 433.962,216.117 434.5,214.5C 435.778,214.218 436.778,213.551 437.5,212.5 Z"/></g>
<g><path style="opacity:0.694" fill="#486283" d="M 530.5,215.5 C 531.906,215.973 532.573,216.973 532.5,218.5C 531.094,218.027 530.427,217.027 530.5,215.5 Z"/></g>
<g><path style="opacity:0.875" fill="#465e81" d="M 442.5,213.5 C 442.264,216.621 440.931,218.954 438.5,220.5C 439.079,217.669 440.412,215.336 442.5,213.5 Z"/></g>
<g><path style="opacity:0.647" fill="#466082" d="M 131.5,215.5 C 129.5,218.167 127.167,220.5 124.5,222.5C 125.833,219.167 128.167,216.833 131.5,215.5 Z"/></g>
<g><path style="opacity:0.251" fill="#a4b1c2" d="M 434.5,214.5 C 433.962,216.117 433.629,217.784 433.5,219.5C 432.833,219.5 432.167,219.5 431.5,219.5C 431.75,217.326 432.75,215.659 434.5,214.5 Z"/></g>
<g><path style="opacity:0.306" fill="#9fadbe" d="M 449.5,214.5 C 449.408,216.848 448.408,218.514 446.5,219.5C 446.75,217.326 447.75,215.659 449.5,214.5 Z"/></g>
<g><path style="opacity:0.875" fill="#435b7f" d="M 456.5,215.5 C 456.264,218.621 454.931,220.954 452.5,222.5C 453.079,219.669 454.412,217.336 456.5,215.5 Z"/></g>
<g><path style="opacity:0.796" fill="#3d567b" d="M 424.5,218.5 C 424.264,221.621 422.931,223.954 420.5,225.5C 421.079,222.669 422.412,220.336 424.5,218.5 Z"/></g>
<g><path style="opacity:0.125" fill="#9caabd" d="M 446.5,219.5 C 446.167,220.833 445.833,222.167 445.5,223.5C 445.5,223.833 445.5,224.167 445.5,224.5C 444.778,225.551 443.778,226.218 442.5,226.5C 443.079,223.669 444.412,221.336 446.5,219.5 Z"/></g>
<g><path style="opacity:0.796" fill="#425a7e" d="M 438.5,220.5 C 438.264,223.621 436.931,225.954 434.5,227.5C 435.079,224.669 436.412,222.336 438.5,220.5 Z"/></g>
<g><path style="opacity:0.502" fill="#677d99" d="M 535.5,222.5 C 536.167,222.833 536.833,223.167 537.5,223.5C 537.5,224.167 537.5,224.833 537.5,225.5C 536.094,225.027 535.427,224.027 535.5,222.5 Z"/></g>
<g><path style="opacity:0.047" fill="#e2e5e8" d="M 537.5,223.5 C 540.313,224.446 541.646,226.446 541.5,229.5C 540.5,228.833 539.5,228.167 538.5,227.5C 538.672,226.508 538.338,225.842 537.5,225.5C 537.5,224.833 537.5,224.167 537.5,223.5 Z"/></g>
<g><path style="opacity:0.424" fill="#8496ad" d="M 413.5,224.5 C 413.573,226.027 412.906,227.027 411.5,227.5C 411.427,225.973 412.094,224.973 413.5,224.5 Z"/></g>
<g><path style="opacity:0.796" fill="#40597d" d="M 452.5,222.5 C 452.264,225.621 450.931,227.954 448.5,229.5C 449.079,226.669 450.412,224.336 452.5,222.5 Z"/></g>
<g><path style="opacity:0.063" fill="#ebeef2" d="M 417.5,219.5 C 417.5,220.833 417.5,222.167 417.5,223.5C 415.956,225.887 413.956,227.887 411.5,229.5C 411.5,228.833 411.5,228.167 411.5,227.5C 412.906,227.027 413.573,226.027 413.5,224.5C 413.328,223.508 413.662,222.842 414.5,222.5C 415.9,221.9 416.9,220.9 417.5,219.5 Z"/></g>
<g><path style="opacity:0.282" fill="#b6c0ce" d="M 431.5,219.5 C 431.029,221.579 430.363,223.579 429.5,225.5C 429.5,225.833 429.5,226.167 429.5,226.5C 428.778,227.551 427.778,228.218 426.5,228.5C 427.41,225.008 429.076,222.008 431.5,219.5 Z"/></g>
<g><path style="opacity:0.086" fill="#f8f9fa" d="M 445.5,224.5 C 445.5,225.5 445.5,226.5 445.5,227.5C 443.824,228.183 443.157,229.517 443.5,231.5C 442.833,231.5 442.167,231.5 441.5,231.5C 441.629,229.784 441.962,228.117 442.5,226.5C 443.778,226.218 444.778,225.551 445.5,224.5 Z"/></g>
<g><path style="opacity:0.749" fill="#2e4d72" d="M 124.5,222.5 C 123.771,227.13 123.437,231.797 123.5,236.5C 122.521,233.375 122.187,230.042 122.5,226.5C 122.66,224.847 123.326,223.514 124.5,222.5 Z"/></g>
<g><path style="opacity:0.655" fill="#3d577c" d="M 420.5,225.5 C 419.314,227.874 419.314,230.208 420.5,232.5C 419.391,232.443 418.391,232.11 417.5,231.5C 417.5,230.5 417.5,229.5 417.5,228.5C 418.272,227.306 419.272,226.306 420.5,225.5 Z"/></g>
<g><path style="opacity:0.502" fill="#5a718f" d="M 538.5,227.5 C 539.5,228.167 540.5,228.833 541.5,229.5C 541.5,230.167 541.5,230.833 541.5,231.5C 539.738,230.738 538.738,229.404 538.5,227.5 Z"/></g>
<g><path style="opacity:0.125" fill="#f9fafb" d="M 429.5,226.5 C 429.5,227.5 429.5,228.5 429.5,229.5C 428.167,230.833 426.833,232.167 425.5,233.5C 425.629,231.784 425.962,230.117 426.5,228.5C 427.778,228.218 428.778,227.551 429.5,226.5 Z"/></g>
<g><path style="opacity:0.251" fill="#9fadbf" d="M 442.5,226.5 C 441.962,228.117 441.629,229.784 441.5,231.5C 440.778,232.551 439.778,233.218 438.5,233.5C 439.079,230.669 440.412,228.336 442.5,226.5 Z"/></g>
<g><path style="opacity:0.282" fill="#9baabc" d="M 411.5,227.5 C 411.5,228.167 411.5,228.833 411.5,229.5C 410.9,230.9 409.9,231.9 408.5,232.5C 408.75,230.326 409.75,228.659 411.5,227.5 Z"/></g>
<g><path style="opacity:0.099" fill="#f7f8f9" d="M 441.5,231.5 C 441.5,232.833 441.5,234.167 441.5,235.5C 440.167,235.5 439.5,236.167 439.5,237.5C 438.833,237.5 438.167,237.5 437.5,237.5C 437.833,236.167 438.167,234.833 438.5,233.5C 439.778,233.218 440.778,232.551 441.5,231.5 Z"/></g>
<g><path style="opacity:0.227" fill="#aab7c6" d="M 426.5,228.5 C 425.962,230.117 425.629,231.784 425.5,233.5C 424.833,233.5 424.167,233.5 423.5,233.5C 423.75,231.326 424.75,229.659 426.5,228.5 Z"/></g>
<g><path style="opacity:0.096" fill="#e6e9ee" d="M 417.5,231.5 C 418.391,232.11 419.391,232.443 420.5,232.5C 421.209,233.404 422.209,233.737 423.5,233.5C 424.167,233.5 424.833,233.5 425.5,233.5C 423.365,235.369 420.698,236.036 417.5,235.5C 417.5,234.167 417.5,232.833 417.5,231.5 Z"/></g>
<g><path style="opacity:0.875" fill="#3d567b" d="M 448.5,229.5 C 448.264,232.621 446.931,234.954 444.5,236.5C 445.079,233.669 446.412,231.336 448.5,229.5 Z"/></g>
<g><path style="opacity:0.115" fill="#dfe4ea" d="M 411.5,229.5 C 411.421,231.666 410.754,233.666 409.5,235.5C 413.371,240.916 414.371,246.916 412.5,253.5C 409.122,261.62 404.788,268.953 399.5,275.5C 400.167,273.167 400.833,270.833 401.5,268.5C 404.314,262.205 407.647,256.205 411.5,250.5C 412.629,248.372 412.796,246.039 412,243.5C 411.292,242.619 410.458,241.953 409.5,241.5C 407.373,238.627 407.04,235.627 408.5,232.5C 409.9,231.9 410.9,230.9 411.5,229.5 Z"/></g>
<g><path style="opacity:0.655" fill="#2f4971" d="M 434.5,227.5 C 434.082,231.349 432.415,234.349 429.5,236.5C 429.5,235.833 429.5,235.167 429.5,234.5C 430.921,231.991 432.588,229.657 434.5,227.5 Z"/></g>
<g><path style="opacity:0.086" fill="#eff1f4" d="M 541.5,229.5 C 542.735,229.721 543.735,230.388 544.5,231.5C 547.408,236.642 549.741,241.976 551.5,247.5C 550.833,247.167 550.167,246.833 549.5,246.5C 549.34,244.847 548.674,243.514 547.5,242.5C 546.921,239.669 545.588,237.336 543.5,235.5C 543.34,233.847 542.674,232.514 541.5,231.5C 541.5,230.833 541.5,230.167 541.5,229.5 Z"/></g>
<g><path style="opacity:0.118" fill="#99a7ba" d="M 438.5,233.5 C 438.167,234.833 437.833,236.167 437.5,237.5C 437.5,237.833 437.5,238.167 437.5,238.5C 436.833,238.5 436.167,238.5 435.5,238.5C 435.75,236.326 436.75,234.659 438.5,233.5 Z"/></g>
<g><path style="opacity:0.875" fill="#485f82" d="M 543.5,235.5 C 545.588,237.336 546.921,239.669 547.5,242.5C 544.932,240.973 543.599,238.639 543.5,235.5 Z"/></g>
<g><path style="opacity:0.071" fill="#e1e5eb" d="M 429.5,238.5 C 430.391,239.11 431.391,239.443 432.5,239.5C 433.947,240.885 434.947,240.552 435.5,238.5C 436.167,238.5 436.833,238.5 437.5,238.5C 437.5,239.5 437.5,240.5 437.5,241.5C 434.833,241.5 432.167,241.5 429.5,241.5C 429.5,240.5 429.5,239.5 429.5,238.5 Z"/></g>
<g><path style="opacity:0.212" fill="#7086a0" d="M 435.5,238.5 C 434.947,240.552 433.947,240.885 432.5,239.5C 433.609,239.443 434.609,239.11 435.5,238.5 Z"/></g>
<g><path style="opacity:0.796" fill="#415a7e" d="M 444.5,236.5 C 444.408,238.848 443.408,240.514 441.5,241.5C 441.75,239.326 442.75,237.659 444.5,236.5 Z"/></g>
<g><path style="opacity:0.055" fill="#d0d5dd" d="M 121.5,226.5 C 121.833,226.5 122.167,226.5 122.5,226.5C 122.187,230.042 122.521,233.375 123.5,236.5C 123.977,240.793 125.977,244.127 129.5,246.5C 130.167,247.5 130.833,248.5 131.5,249.5C 127.758,248.782 124.758,246.782 122.5,243.5C 121.505,237.872 121.171,232.206 121.5,226.5 Z"/></g>
<g><path style="opacity:0.722" fill="#496183" d="M 441.5,241.5 C 441.408,243.848 440.408,245.514 438.5,246.5C 438.75,244.326 439.75,242.659 441.5,241.5 Z"/></g>
<g><path style="opacity:0.875" fill="#4e6687" d="M 547.5,242.5 C 548.674,243.514 549.34,244.847 549.5,246.5C 547.824,245.817 547.157,244.483 547.5,242.5 Z"/></g>
<g><path style="opacity:0.749" fill="#435e81" d="M 409.5,241.5 C 410.458,241.953 411.292,242.619 412,243.5C 412.796,246.039 412.629,248.372 411.5,250.5C 411.79,247.215 411.123,244.215 409.5,241.5 Z"/></g>
<g><path style="opacity:0.502" fill="#496283" d="M 129.5,246.5 C 131.404,246.738 132.738,247.738 133.5,249.5C 132.833,249.5 132.167,249.5 131.5,249.5C 130.833,248.5 130.167,247.5 129.5,246.5 Z"/></g>
<g><path style="opacity:0.12" fill="#eceff2" d="M 455.5,211.5 C 456.167,211.5 456.833,211.5 457.5,211.5C 457.167,212.833 456.833,214.167 456.5,215.5C 454.412,217.336 453.079,219.669 452.5,222.5C 450.412,224.336 449.079,226.669 448.5,229.5C 446.412,231.336 445.079,233.669 444.5,236.5C 442.75,237.659 441.75,239.326 441.5,241.5C 439.75,242.659 438.75,244.326 438.5,246.5C 437.094,246.973 436.427,247.973 436.5,249.5C 435.009,252.091 432.675,253.091 429.5,252.5C 428.508,252.672 427.842,252.338 427.5,251.5C 428.978,251.762 430.311,251.429 431.5,250.5C 434.782,248.242 436.782,245.242 437.5,241.5C 439.176,240.817 439.843,239.483 439.5,237.5C 440.833,237.5 441.5,236.833 441.5,235.5C 443.176,234.817 443.843,233.483 443.5,231.5C 445.176,230.817 445.843,229.483 445.5,227.5C 447.176,226.817 447.843,225.483 447.5,223.5C 448.833,223.5 449.5,222.833 449.5,221.5C 451.176,220.817 451.843,219.483 451.5,217.5C 453.176,216.817 453.843,215.483 453.5,213.5C 454.833,213.5 455.5,212.833 455.5,211.5 Z"/></g>
<g><path style="opacity:0.514" fill="#7287a1" d="M 438.5,246.5 C 438.573,248.027 437.906,249.027 436.5,249.5C 436.427,247.973 437.094,246.973 438.5,246.5 Z"/></g>
<g><path style="opacity:0.502" fill="#91a1b4" d="M 549.5,246.5 C 550.167,246.833 550.833,247.167 551.5,247.5C 551.5,248.833 551.5,250.167 551.5,251.5C 550.463,250.07 549.796,248.403 549.5,246.5 Z"/></g>
<g><path style="opacity:0.11" fill="#eaedf0" d="M 551.5,247.5 C 553.308,248.918 553.975,250.918 553.5,253.5C 553.167,253.5 552.833,253.5 552.5,253.5C 552.672,252.508 552.338,251.842 551.5,251.5C 551.5,250.167 551.5,248.833 551.5,247.5 Z"/></g>
<g><path style="opacity:0.063" fill="#eff2f5" d="M 131.5,249.5 C 132.167,249.5 132.833,249.5 133.5,249.5C 134.5,250.167 135.5,250.833 136.5,251.5C 134.219,251.923 132.552,251.256 131.5,249.5 Z"/></g>
<g><path style="opacity:0.251" fill="#788da5" d="M 133.5,249.5 C 184.145,250.315 234.811,250.815 285.5,251C 286.901,251.41 288.234,251.91 289.5,252.5C 289.5,252.833 289.5,253.167 289.5,253.5C 288.833,253.5 288.167,253.5 287.5,253.5C 237.256,251.538 186.923,250.871 136.5,251.5C 135.5,250.833 134.5,250.167 133.5,249.5 Z"/></g>
<g><path style="opacity:0.694" fill="#3a557a" d="M 289.5,253.5 C 289.5,253.167 289.5,252.833 289.5,252.5C 292.5,253.5 294.5,255.5 295.5,258.5C 293.5,256.833 291.5,255.167 289.5,253.5 Z"/></g>
<g><path style="opacity:0.843" fill="#627996" d="M 436.5,249.5 C 436.67,250.822 436.337,251.989 435.5,253C 433.288,253.789 431.288,253.622 429.5,252.5C 432.675,253.091 435.009,252.091 436.5,249.5 Z"/></g>
<g><path style="opacity:0.49" fill="#50698a" d="M 421.5,253.5 C 421.573,255.027 420.906,256.027 419.5,256.5C 419.427,254.973 420.094,253.973 421.5,253.5 Z"/></g>
<g><path style="opacity:0.095" fill="#e0e5ea" d="M 287.5,253.5 C 288.167,253.5 288.833,253.5 289.5,253.5C 291.5,255.167 293.5,256.833 295.5,258.5C 295.833,259.167 296.167,259.833 296.5,260.5C 296.427,262.027 297.094,263.027 298.5,263.5C 299.744,268.035 299.744,272.702 298.5,277.5C 297.094,277.973 296.427,278.973 296.5,280.5C 295.094,280.973 294.427,281.973 294.5,283.5C 290.684,286.659 286.351,288.659 281.5,289.5C 286.236,286.934 290.57,283.601 294.5,279.5C 298.5,273.5 298.5,267.5 294.5,261.5C 291.749,259.09 289.415,256.423 287.5,253.5 Z"/></g>
<g><path style="opacity:0.096" fill="#e8ebef" d="M 422.5,251.5 C 422.167,252.167 421.833,252.833 421.5,253.5C 420.094,253.973 419.427,254.973 419.5,256.5C 417.75,257.659 416.75,259.326 416.5,261.5C 414.75,262.659 413.75,264.326 413.5,266.5C 412.662,266.842 412.328,267.508 412.5,268.5C 410.75,269.659 409.75,271.326 409.5,273.5C 408.662,273.842 408.328,274.508 408.5,275.5C 406.75,276.659 405.75,278.326 405.5,280.5C 404.662,280.842 404.328,281.508 404.5,282.5C 403.094,282.973 402.427,283.973 402.5,285.5C 400.412,287.336 399.079,289.669 398.5,292.5C 396.75,293.659 395.75,295.326 395.5,297.5C 394.662,297.842 394.328,298.508 394.5,299.5C 392.75,300.659 391.75,302.326 391.5,304.5C 390.662,304.842 390.328,305.508 390.5,306.5C 388.75,307.659 387.75,309.326 387.5,311.5C 385.926,313.102 385.259,315.102 385.5,317.5C 385.427,319.027 386.094,320.027 387.5,320.5C 388.36,324.434 388.693,328.434 388.5,332.5C 387.651,335.035 386.651,337.535 385.5,340C 388.058,345.614 390.724,351.114 393.5,356.5C 393.427,358.027 394.094,359.027 395.5,359.5C 395.5,360.167 395.5,360.833 395.5,361.5C 394.265,361.279 393.265,360.612 392.5,359.5C 390.339,354.508 387.672,349.841 384.5,345.5C 384.167,343.833 383.833,342.167 383.5,340.5C 384.833,336.5 386.167,332.5 387.5,328.5C 386.167,324.5 384.833,320.5 383.5,316.5C 383.833,314.833 384.167,313.167 384.5,311.5C 395.167,292.833 405.833,274.167 416.5,255.5C 418.007,253.31 420.007,251.976 422.5,251.5 Z"/></g>
<g><path style="opacity:0.376" fill="#93a2b7" d="M 552.5,253.5 C 552.833,253.5 553.167,253.5 553.5,253.5C 554.301,255.042 554.634,256.708 554.5,258.5C 553.463,257.07 552.796,255.403 552.5,253.5 Z"/></g>
<g><path style="opacity:0.086" fill="#e1e5eb" d="M 553.5,253.5 C 554.943,254.335 555.943,255.668 556.5,257.5C 558.997,263.65 560.663,269.983 561.5,276.5C 560.833,275.833 560.167,275.167 559.5,274.5C 559.025,270.916 558.025,267.583 556.5,264.5C 556.741,262.102 556.074,260.102 554.5,258.5C 554.634,256.708 554.301,255.042 553.5,253.5 Z"/></g>
<g><path style="opacity:0.906" fill="#3a5479" d="M 419.5,256.5 C 419.408,258.848 418.408,260.514 416.5,261.5C 416.75,259.326 417.75,257.659 419.5,256.5 Z"/></g>
<g><path style="opacity:0.722" fill="#556c8c" d="M 554.5,258.5 C 556.074,260.102 556.741,262.102 556.5,264.5C 554.926,262.898 554.259,260.898 554.5,258.5 Z"/></g>
<g><path style="opacity:0.627" fill="#7287a1" d="M 296.5,260.5 C 297.906,260.973 298.573,261.973 298.5,263.5C 297.094,263.027 296.427,262.027 296.5,260.5 Z"/></g>
<g><path style="opacity:0.882" fill="#3f587d" d="M 416.5,261.5 C 416.408,263.848 415.408,265.514 413.5,266.5C 413.75,264.326 414.75,262.659 416.5,261.5 Z"/></g>
<g><path style="opacity:0.306" fill="#b6c0ce" d="M 401.5,268.5 C 400.833,270.833 400.167,273.167 399.5,275.5C 399.5,276.833 398.833,277.5 397.5,277.5C 396.9,278.9 395.9,279.9 394.5,280.5C 396.332,276.164 398.665,272.164 401.5,268.5 Z"/></g>
<g><path style="opacity:0.875" fill="#3a5479" d="M 412.5,268.5 C 412.408,270.848 411.408,272.514 409.5,273.5C 409.75,271.326 410.75,269.659 412.5,268.5 Z"/></g>
<g><path style="opacity:0.094" fill="#e3e7eb" d="M 561.5,277.5 C 563.308,278.918 563.975,280.918 563.5,283.5C 562.833,282.5 562.167,281.5 561.5,280.5C 561.5,279.5 561.5,278.5 561.5,277.5 Z"/></g>
<g><path style="opacity:0.502" fill="#546c8c" d="M 298.5,277.5 C 298.573,279.027 297.906,280.027 296.5,280.5C 296.427,278.973 297.094,277.973 298.5,277.5 Z"/></g>
<g><path style="opacity:0.882" fill="#3a5379" d="M 408.5,275.5 C 408.408,277.848 407.408,279.514 405.5,280.5C 405.75,278.326 406.75,276.659 408.5,275.5 Z"/></g>
<g><path style="opacity:0.627" fill="#4c6686" d="M 559.5,274.5 C 560.167,275.167 560.833,275.833 561.5,276.5C 561.5,276.833 561.5,277.167 561.5,277.5C 561.5,278.5 561.5,279.5 561.5,280.5C 559.926,278.898 559.259,276.898 559.5,274.5 Z"/></g>
<g><path style="opacity:0.651" fill="#546c8c" d="M 296.5,280.5 C 296.573,282.027 295.906,283.027 294.5,283.5C 294.427,281.973 295.094,280.973 296.5,280.5 Z"/></g>
<g><path style="opacity:0.749" fill="#516b8b" d="M 404.5,282.5 C 404.573,284.027 403.906,285.027 402.5,285.5C 402.427,283.973 403.094,282.973 404.5,282.5 Z"/></g>
<g><path style="opacity:0.102" fill="#e0e4ea" d="M 397.5,277.5 C 396.411,281.686 394.744,285.686 392.5,289.5C 388.5,296.167 384.5,302.833 380.5,309.5C 379.476,310.853 378.143,311.52 376.5,311.5C 376.5,311.167 376.5,310.833 376.5,310.5C 380.916,302.667 385.582,295 390.5,287.5C 392.408,286.514 393.408,284.848 393.5,282.5C 393.328,281.508 393.662,280.842 394.5,280.5C 395.9,279.9 396.9,278.9 397.5,277.5 Z"/></g>
<g><path style="opacity:0.306" fill="#afbbca" d="M 393.5,282.5 C 393.408,284.848 392.408,286.514 390.5,287.5C 390.75,285.326 391.75,283.659 393.5,282.5 Z"/></g>
<g><path style="opacity:0.533" fill="#7085a0" d="M 561.5,280.5 C 562.167,281.5 562.833,282.5 563.5,283.5C 563.5,284.167 563.5,284.833 563.5,285.5C 563.5,286.167 563.5,286.833 563.5,287.5C 562.076,285.485 561.41,283.152 561.5,280.5 Z"/></g>
<g><path style="opacity:0.875" fill="#435b7f" d="M 402.5,285.5 C 402.264,288.621 400.931,290.954 398.5,292.5C 399.079,289.669 400.412,287.336 402.5,285.5 Z"/></g>
<g><path style="opacity:0.157" fill="#d1d8e0" d="M 563.5,285.5 C 565.402,288.337 566.069,291.671 565.5,295.5C 565.5,295.833 565.5,296.167 565.5,296.5C 564.755,293.61 564.088,290.61 563.5,287.5C 563.5,286.833 563.5,286.167 563.5,285.5 Z"/></g>
<g><path style="opacity:0.647" fill="#435e80" d="M 37.5,293.5 C 35.8333,295.833 33.8333,297.833 31.5,299.5C 32.5,296.5 34.5,294.5 37.5,293.5 Z"/></g>
<g><path style="opacity:0.796" fill="#435b7f" d="M 398.5,292.5 C 398.408,294.848 397.408,296.514 395.5,297.5C 395.75,295.326 396.75,293.659 398.5,292.5 Z"/></g>
<g><path style="opacity:0.157" fill="#e6e9ee" d="M 565.5,295.5 C 567.414,298.684 568.08,302.351 567.5,306.5C 566.677,303.316 566.01,299.983 565.5,296.5C 565.5,296.167 565.5,295.833 565.5,295.5 Z"/></g>
<g><path style="opacity:0.627" fill="#7d90a8" d="M 31.5,299.5 C 31.573,301.027 30.9063,302.027 29.5,302.5C 29.427,300.973 30.0937,299.973 31.5,299.5 Z"/></g>
<g><path style="opacity:0.875" fill="#3f577c" d="M 394.5,299.5 C 394.408,301.848 393.408,303.514 391.5,304.5C 391.75,302.326 392.75,300.659 394.5,299.5 Z"/></g>
<g><path style="opacity:0.157" fill="#56718f" d="M 376.5,310.5 C 376.5,310.833 376.5,311.167 376.5,311.5C 374.167,311.5 371.833,311.5 369.5,311.5C 368.167,311.833 366.833,312.167 365.5,312.5C 365.611,311.883 365.944,311.383 366.5,311C 369.817,310.502 373.15,310.335 376.5,310.5 Z"/></g>
<g><path style="opacity:0.796" fill="#3d567b" d="M 390.5,306.5 C 390.408,308.848 389.408,310.514 387.5,311.5C 387.75,309.326 388.75,307.659 390.5,306.5 Z"/></g>
<g><path style="opacity:0.09" fill="#eff1f4" d="M 369.5,311.5 C 365.55,314.774 361.55,318.107 357.5,321.5C 358.11,320.609 358.443,319.609 358.5,318.5C 360.167,317.5 361.5,316.167 362.5,314.5C 362.973,313.094 363.973,312.427 365.5,312.5C 366.833,312.167 368.167,311.833 369.5,311.5 Z"/></g>
<g><path style="opacity:0.353" fill="#a0aebf" d="M 362.5,314.5 C 361.5,316.167 360.167,317.5 358.5,318.5C 358.833,316.167 360.167,314.833 362.5,314.5 Z"/></g>
<g><path style="opacity:0.514" fill="#8d9fb3" d="M 385.5,317.5 C 386.906,317.973 387.573,318.973 387.5,320.5C 386.094,320.027 385.427,319.027 385.5,317.5 Z"/></g>
<g><path style="opacity:0.51" fill="#4e6788" d="M 34.5,322.5 C 36.0269,322.427 37.0269,323.094 37.5,324.5C 35.9731,324.573 34.9731,323.906 34.5,322.5 Z"/></g>
<g><path style="opacity:0.502" fill="#576f8e" d="M 37.5,324.5 C 39.0269,324.427 40.0269,325.094 40.5,326.5C 38.9731,326.573 37.9731,325.906 37.5,324.5 Z"/></g>
<g><path style="opacity:0.749" fill="#8d9eb3" d="M 387.5,320.5 C 388.117,320.611 388.617,320.944 389,321.5C 389.81,325.358 389.643,329.024 388.5,332.5C 388.693,328.434 388.36,324.434 387.5,320.5 Z"/></g>
<g><path style="opacity:0.749" fill="#6c839e" d="M 40.5,326.5 C 97.3129,327.151 153.98,327.817 210.5,328.5C 154.499,328.667 98.499,328.5 42.5,328C 41.5842,327.722 40.9175,327.222 40.5,326.5 Z"/></g>
<g><path style="opacity:0.749" fill="#a9b6c6" d="M 358.5,318.5 C 358.443,319.609 358.11,320.609 357.5,321.5C 356.249,326.369 356.249,331.369 357.5,336.5C 355.348,334.393 354.348,331.726 354.5,328.5C 354.682,325.774 355.182,323.107 356,320.5C 356.708,319.619 357.542,318.953 358.5,318.5 Z"/></g>
<g><path style="opacity:0.251" fill="#eff1f4" d="M 44.5,289.5 C 41.9453,290.461 39.612,291.794 37.5,293.5C 34.5,294.5 32.5,296.5 31.5,299.5C 30.0937,299.973 29.427,300.973 29.5,302.5C 28.238,310.044 29.9047,316.71 34.5,322.5C 34.9731,323.906 35.9731,324.573 37.5,324.5C 37.9731,325.906 38.9731,326.573 40.5,326.5C 40.9175,327.222 41.5842,327.722 42.5,328C 98.499,328.5 154.499,328.667 210.5,328.5C 212.965,328.767 215.299,329.434 217.5,330.5C 218.833,332.5 220.5,334.167 222.5,335.5C 223.89,336.899 224.89,338.566 225.5,340.5C 225.5,341.5 225.5,342.5 225.5,343.5C 221.882,338.221 217.215,333.888 211.5,330.5C 154.167,329.833 96.8333,329.167 39.5,328.5C 34.5,326.167 30.8333,322.5 28.5,317.5C 27.1667,311.5 27.1667,305.5 28.5,299.5C 31.3103,292.007 36.6437,288.674 44.5,289.5 Z"/></g>
<g><path style="opacity:0.694" fill="#486284" d="M 217.5,330.5 C 220.167,331.167 221.833,332.833 222.5,335.5C 220.5,334.167 218.833,332.5 217.5,330.5 Z"/></g>
<g><path style="opacity:0.749" fill="#a5b3c3" d="M 365.5,344.5 C 369.971,343.911 373.971,344.577 377.5,346.5C 373.395,345.891 369.395,345.225 365.5,344.5 Z"/></g>
<g><path style="opacity:0.251" fill="#a1aec0" d="M 225.5,340.5 C 226.645,344.311 226.812,348.311 226,352.5C 225.901,354.653 225.067,356.319 223.5,357.5C 223.5,356.833 223.5,356.167 223.5,355.5C 224.799,351.63 225.466,347.63 225.5,343.5C 225.5,342.5 225.5,341.5 225.5,340.5 Z"/></g>
<g><path style="opacity:0.882" fill="#3e577b" d="M 379.5,350.5 C 380.89,351.899 381.89,353.566 382.5,355.5C 380.241,354.656 379.241,352.989 379.5,350.5 Z"/></g>
<g><path style="opacity:0.099" fill="#eff2f4" d="M 357.5,321.5 C 357.176,325.555 357.509,329.555 358.5,333.5C 361.5,336.5 364.5,339.5 367.5,342.5C 371.445,343.491 375.445,343.824 379.5,343.5C 379.917,346.343 380.917,349.01 382.5,351.5C 388.335,359.832 393.668,368.499 398.5,377.5C 401.408,382.642 403.741,387.976 405.5,393.5C 405.167,393.5 404.833,393.5 404.5,393.5C 404.573,391.973 403.906,390.973 402.5,390.5C 402.34,388.847 401.674,387.514 400.5,386.5C 400.573,384.973 399.906,383.973 398.5,383.5C 398.34,381.847 397.674,380.514 396.5,379.5C 396.573,377.973 395.906,376.973 394.5,376.5C 394.34,374.847 393.674,373.514 392.5,372.5C 392.573,370.973 391.906,369.973 390.5,369.5C 389.89,367.566 388.89,365.899 387.5,364.5C 387.34,362.847 386.674,361.514 385.5,360.5C 384.89,358.566 383.89,356.899 382.5,355.5C 381.89,353.566 380.89,351.899 379.5,350.5C 379.34,348.847 378.674,347.514 377.5,346.5C 373.971,344.577 369.971,343.911 365.5,344.5C 361.833,342.833 359.167,340.167 357.5,336.5C 356.249,331.369 356.249,326.369 357.5,321.5 Z"/></g>
<g><path style="opacity:0.749" fill="#566f8e" d="M 566.5,349.5 C 566.331,354.181 565.998,358.848 565.5,363.5C 565.5,363.833 565.5,364.167 565.5,364.5C 565.167,364.5 564.833,364.5 564.5,364.5C 564.444,359.269 565.111,354.269 566.5,349.5 Z"/></g>
<g><path style="opacity:0.906" fill="#475e81" d="M 382.5,355.5 C 383.89,356.899 384.89,358.566 385.5,360.5C 383.241,359.656 382.241,357.989 382.5,355.5 Z"/></g>
<g><path style="opacity:0.424" fill="#95a6b8" d="M 393.5,356.5 C 394.906,356.973 395.573,357.973 395.5,359.5C 394.094,359.027 393.427,358.027 393.5,356.5 Z"/></g>
<g><path style="opacity:0.125" fill="#d2d9e1" d="M 567.5,347.5 C 568.113,353.271 567.446,358.604 565.5,363.5C 565.998,358.848 566.331,354.181 566.5,349.5C 566.328,348.508 566.662,347.842 567.5,347.5 Z"/></g>
<g><path style="opacity:0.063" fill="#eef0f4" d="M 223.5,355.5 C 223.5,356.167 223.5,356.833 223.5,357.5C 221.833,359.833 219.833,361.833 217.5,363.5C 216.833,363.5 216.167,363.5 215.5,363.5C 217.5,360.167 220.167,357.5 223.5,355.5 Z"/></g>
<g><path style="opacity:0.376" fill="#788ca4" d="M 395.5,359.5 C 396.906,359.973 397.573,360.973 397.5,362.5C 396.833,362.167 396.167,361.833 395.5,361.5C 395.5,360.833 395.5,360.167 395.5,359.5 Z"/></g>
<g><path style="opacity:0.502" fill="#597190" d="M 215.5,363.5 C 216.167,363.5 216.833,363.5 217.5,363.5C 217.027,364.906 216.027,365.573 214.5,365.5C 214.833,364.833 215.167,364.167 215.5,363.5 Z"/></g>
<g><path style="opacity:0.251" fill="#b5bfcd" d="M 215.5,363.5 C 215.167,364.167 214.833,364.833 214.5,365.5C 213.292,366.234 211.959,366.567 210.5,366.5C 194.833,366.5 179.167,366.5 163.5,366.5C 163.5,366.167 163.5,365.833 163.5,365.5C 180.941,366.051 198.275,365.384 215.5,363.5 Z"/></g>
<g><path style="opacity:0.282" fill="#dbe0e6" d="M 105.5,365.5 C 105.5,365.833 105.5,366.167 105.5,366.5C 93.6547,366.172 81.988,366.505 70.5,367.5C 68.2512,368.08 66.5846,369.413 65.5,371.5C 63.6593,372.402 62.326,373.736 61.5,375.5C 60.0937,375.973 59.427,376.973 59.5,378.5C 59.5,378.833 59.5,379.167 59.5,379.5C 58.1318,384.82 58.4651,390.154 60.5,395.5C 61.5,398.5 63.5,400.5 66.5,401.5C 66.9731,402.906 67.9731,403.573 69.5,403.5C 70.1667,404.167 70.8333,404.833 71.5,405.5C 65.2158,404.901 60.8824,401.568 58.5,395.5C 57.1667,388.833 57.1667,382.167 58.5,375.5C 60.1667,371.167 63.1667,368.167 67.5,366.5C 80.1492,365.501 92.8158,365.168 105.5,365.5 Z"/></g>
<g><path style="opacity:0.749" fill="#3e5b7e" d="M 163.5,366.5 C 179.167,366.5 194.833,366.5 210.5,366.5C 193.295,367.193 175.961,367.86 158.5,368.5C 159.635,366.787 161.302,366.12 163.5,366.5 Z"/></g>
<g><path style="opacity:0.996" fill="#012957" d="M 70.5,367.5 C 83.1711,367.333 95.8377,367.5 108.5,368C 110.154,368.608 111.821,369.108 113.5,369.5C 114.833,371.5 116.5,373.167 118.5,374.5C 123.456,384.345 122.123,393.345 114.5,401.5C 112.973,401.427 111.973,402.094 111.5,403.5C 109.883,404.038 108.216,404.371 106.5,404.5C 94.1363,404.752 81.803,404.418 69.5,403.5C 69.0269,402.094 68.0269,401.427 66.5,401.5C 64.8333,399.5 63.1667,397.5 61.5,395.5C 59.9131,390.303 59.2464,384.969 59.5,379.5C 59.5,379.167 59.5,378.833 59.5,378.5C 60.9063,378.027 61.573,377.027 61.5,375.5C 62.326,373.736 63.6593,372.402 65.5,371.5C 67.7488,370.92 69.4154,369.587 70.5,367.5 Z"/></g>
<g><path style="opacity:0.024" fill="#e9ebed" d="M 105.5,366.5 C 105.5,366.167 105.5,365.833 105.5,365.5C 108.247,365.187 110.914,365.52 113.5,366.5C 114.612,367.265 115.279,368.265 115.5,369.5C 114.833,369.5 114.167,369.5 113.5,369.5C 111.383,367.345 108.716,366.345 105.5,366.5 Z"/></g>
<g><path style="opacity:0.047" fill="#e1e4e8" d="M 163.5,365.5 C 163.5,365.833 163.5,366.167 163.5,366.5C 161.302,366.12 159.635,366.787 158.5,368.5C 155.907,369.754 153.573,371.42 151.5,373.5C 150.167,375.167 148.833,376.833 147.5,378.5C 149.469,370.211 154.802,365.877 163.5,365.5 Z"/></g>
<g><path style="opacity:0.906" fill="#385278" d="M 387.5,364.5 C 388.89,365.899 389.89,367.566 390.5,369.5C 388.241,368.656 387.241,366.989 387.5,364.5 Z"/></g>
<g><path style="opacity:0.353" fill="#687d98" d="M 70.5,367.5 C 81.988,366.505 93.6547,366.172 105.5,366.5C 108.716,366.345 111.383,367.345 113.5,369.5C 111.821,369.108 110.154,368.608 108.5,368C 95.8377,367.5 83.1711,367.333 70.5,367.5 Z"/></g>
<g><path style="opacity:0.18" fill="#9eadbf" d="M 113.5,369.5 C 114.167,369.5 114.833,369.5 115.5,369.5C 116.833,369.5 117.5,370.167 117.5,371.5C 118.11,372.391 118.443,373.391 118.5,374.5C 116.5,373.167 114.833,371.5 113.5,369.5 Z"/></g>
<g><path style="opacity:0.796" fill="#3f587c" d="M 70.5,367.5 C 69.4154,369.587 67.7488,370.92 65.5,371.5C 66.5846,369.413 68.2512,368.08 70.5,367.5 Z"/></g>
<g><path style="opacity:0.031" fill="#dbe1e7" d="M 564.5,364.5 C 564.833,364.5 565.167,364.5 565.5,364.5C 566.01,367.388 565.344,369.721 563.5,371.5C 564.219,369.236 564.552,366.903 564.5,364.5 Z"/></g>
<g><path style="opacity:0.502" fill="#788ca5" d="M 390.5,369.5 C 391.906,369.973 392.573,370.973 392.5,372.5C 391.094,372.027 390.427,371.027 390.5,369.5 Z"/></g>
<g><path style="opacity:0.251" fill="#597290" d="M 564.5,364.5 C 564.552,366.903 564.219,369.236 563.5,371.5C 563.5,371.833 563.5,372.167 563.5,372.5C 563.167,372.5 562.833,372.5 562.5,372.5C 562.565,369.572 563.232,366.905 564.5,364.5 Z"/></g>
<g><path style="opacity:0.627" fill="#7388a1" d="M 61.5,375.5 C 61.573,377.027 60.9063,378.027 59.5,378.5C 59.427,376.973 60.0937,375.973 61.5,375.5 Z"/></g>
<g><path style="opacity:0.073" fill="#e3e7ec" d="M 395.5,361.5 C 396.167,361.833 396.833,362.167 397.5,362.5C 400.227,366.577 402.561,370.91 404.5,375.5C 404.427,377.027 405.094,378.027 406.5,378.5C 406.241,380.989 407.241,382.656 409.5,383.5C 410.674,384.514 411.34,385.847 411.5,387.5C 411.5,388.167 411.5,388.833 411.5,389.5C 410.265,389.279 409.265,388.612 408.5,387.5C 403.645,379.011 399.311,370.344 395.5,361.5 Z"/></g>
<g><path style="opacity:0.502" fill="#90a1b5" d="M 404.5,375.5 C 405.906,375.973 406.573,376.973 406.5,378.5C 405.094,378.027 404.427,377.027 404.5,375.5 Z"/></g>
<g><path style="opacity:0.514" fill="#7388a2" d="M 394.5,376.5 C 395.906,376.973 396.573,377.973 396.5,379.5C 395.094,379.027 394.427,378.027 394.5,376.5 Z"/></g>
<g><path style="opacity:0.063" fill="#dae0e7" d="M 562.5,372.5 C 562.833,372.5 563.167,372.5 563.5,372.5C 564.055,376.012 563.388,379.012 561.5,381.5C 561.5,380.5 561.5,379.5 561.5,378.5C 562.15,376.565 562.483,374.565 562.5,372.5 Z"/></g>
<g><path style="opacity:0.282" fill="#b4becc" d="M 406.5,378.5 C 407.89,379.899 408.89,381.566 409.5,383.5C 407.241,382.656 406.241,380.989 406.5,378.5 Z"/></g>
<g><path style="opacity:0.655" fill="#677d99" d="M 561.5,378.5 C 561.5,379.5 561.5,380.5 561.5,381.5C 561.5,381.833 561.5,382.167 561.5,382.5C 560.833,383.167 560.167,383.833 559.5,384.5C 559.259,382.102 559.926,380.102 561.5,378.5 Z"/></g>
<g><path style="opacity:0.749" fill="#486485" d="M 59.5,379.5 C 59.2464,384.969 59.9131,390.303 61.5,395.5C 61.1667,395.5 60.8333,395.5 60.5,395.5C 58.4651,390.154 58.1318,384.82 59.5,379.5 Z"/></g>
<g><path style="opacity:0.251" fill="#4a6485" d="M 151.5,373.5 C 151.246,376.014 150.413,378.348 149,380.5C 148.502,383.817 148.335,387.15 148.5,390.5C 148.167,390.5 147.833,390.5 147.5,390.5C 147.5,386.5 147.5,382.5 147.5,378.5C 148.833,376.833 150.167,375.167 151.5,373.5 Z"/></g>
<g><path style="opacity:0.502" fill="#6f859e" d="M 398.5,383.5 C 399.906,383.973 400.573,384.973 400.5,386.5C 399.094,386.027 398.427,385.027 398.5,383.5 Z"/></g>
<g><path style="opacity:0.251" fill="#c9d0d9" d="M 117.5,371.5 C 119.417,372.406 121.083,373.739 122.5,375.5C 123.833,382.167 123.833,388.833 122.5,395.5C 121.005,400.002 118.005,402.669 113.5,403.5C 113.833,402.833 114.167,402.167 114.5,401.5C 122.123,393.345 123.456,384.345 118.5,374.5C 118.443,373.391 118.11,372.391 117.5,371.5 Z"/></g>
<g><path style="opacity:0.376" fill="#889ab0" d="M 411.5,387.5 C 412.906,387.973 413.573,388.973 413.5,390.5C 412.833,390.167 412.167,389.833 411.5,389.5C 411.5,388.833 411.5,388.167 411.5,387.5 Z"/></g>
<g><path style="opacity:0.376" fill="#6a819c" d="M 402.5,390.5 C 403.906,390.973 404.573,391.973 404.5,393.5C 403.094,393.027 402.427,392.027 402.5,390.5 Z"/></g>
<g><path style="opacity:0.78" fill="#5c7491" d="M 557.5,392.5 C 557.245,394.967 556.245,396.967 554.5,398.5C 554.755,396.033 555.755,394.033 557.5,392.5 Z"/></g>
<g><path style="opacity:0.094" fill="#dadfe6" d="M 561.5,382.5 C 560.663,389.017 558.997,395.35 556.5,401.5C 555.284,404.633 553.617,407.3 551.5,409.5C 551.5,408.5 551.5,407.5 551.5,406.5C 552.883,404.022 553.883,401.355 554.5,398.5C 556.245,396.967 557.245,394.967 557.5,392.5C 557.963,389.779 558.629,387.112 559.5,384.5C 560.167,383.833 560.833,383.167 561.5,382.5 Z"/></g>
<g><path style="opacity:0.157" fill="#566f8e" d="M 404.5,393.5 C 404.833,393.5 405.167,393.5 405.5,393.5C 405.5,395.167 405.5,396.833 405.5,398.5C 404.833,398.5 404.167,398.5 403.5,398.5C 404.301,396.958 404.634,395.292 404.5,393.5 Z"/></g>
<g><path style="opacity:0.502" fill="#8d9eb3" d="M 415.5,394.5 C 416.906,394.973 417.573,395.973 417.5,397.5C 416.094,397.027 415.427,396.027 415.5,394.5 Z"/></g>
<g><path style="opacity:0.353" fill="#8999ad" d="M 60.5,395.5 C 60.8333,395.5 61.1667,395.5 61.5,395.5C 63.1667,397.5 64.8333,399.5 66.5,401.5C 63.5,400.5 61.5,398.5 60.5,395.5 Z"/></g>
<g><path style="opacity:0.796" fill="#4d6687" d="M 153.5,399.5 C 155.749,400.08 157.415,401.413 158.5,403.5C 156.251,402.92 154.585,401.587 153.5,399.5 Z"/></g>
<g><path style="opacity:0.929" fill="#8295ab" d="M 403.5,398.5 C 402.4,399.605 401.733,400.938 401.5,402.5C 400.024,400.291 400.691,398.958 403.5,398.5 Z"/></g>
<g><path style="opacity:0.58" fill="#768aa3" d="M 66.5,401.5 C 68.0269,401.427 69.0269,402.094 69.5,403.5C 67.9731,403.573 66.9731,402.906 66.5,401.5 Z"/></g>
<g><path style="opacity:0.251" fill="#a1afc0" d="M 114.5,401.5 C 114.167,402.167 113.833,402.833 113.5,403.5C 112.833,403.5 112.167,403.5 111.5,403.5C 111.973,402.094 112.973,401.427 114.5,401.5 Z"/></g>
<g><path style="opacity:0.094" fill="#e3e6ea" d="M 147.5,390.5 C 147.833,390.5 148.167,390.5 148.5,390.5C 149.41,393.992 151.076,396.992 153.5,399.5C 154.585,401.587 156.251,402.92 158.5,403.5C 159.167,404.167 159.833,404.833 160.5,405.5C 151.308,404.81 146.974,399.81 147.5,390.5 Z"/></g>
<g><path style="opacity:0.749" fill="#163b64" d="M 162.5,403.5 C 212.168,403.333 261.834,403.5 311.5,404C 313.32,404.2 314.653,405.034 315.5,406.5C 313.883,405.962 312.216,405.629 310.5,405.5C 261.167,404.833 211.833,404.167 162.5,403.5 Z"/></g>
<g><path style="opacity:0.251" fill="#768ba3" d="M 69.5,403.5 C 81.803,404.418 94.1363,404.752 106.5,404.5C 106.5,404.833 106.5,405.167 106.5,405.5C 94.8333,405.5 83.1667,405.5 71.5,405.5C 70.8333,404.833 70.1667,404.167 69.5,403.5 Z"/></g>
<g><path style="opacity:0.125" fill="#d9dfe5" d="M 111.5,403.5 C 112.167,403.5 112.833,403.5 113.5,403.5C 111.721,405.344 109.388,406.01 106.5,405.5C 106.5,405.167 106.5,404.833 106.5,404.5C 108.216,404.371 109.883,404.038 111.5,403.5 Z"/></g>
<g><path style="opacity:0.251" fill="#7389a1" d="M 158.5,403.5 C 159.833,403.5 161.167,403.5 162.5,403.5C 211.833,404.167 261.167,404.833 310.5,405.5C 309.5,405.5 308.5,405.5 307.5,405.5C 258.5,405.5 209.5,405.5 160.5,405.5C 159.833,404.833 159.167,404.167 158.5,403.5 Z"/></g>
<g><path style="opacity:0.086" fill="#dfe3e9" d="M 411.5,389.5 C 412.167,389.833 412.833,390.167 413.5,390.5C 414.674,391.514 415.34,392.847 415.5,394.5C 415.427,396.027 416.094,397.027 417.5,397.5C 419.924,400.008 421.59,403.008 422.5,406.5C 422.427,408.027 423.094,409.027 424.5,409.5C 426.924,412.008 428.59,415.008 429.5,418.5C 429.427,420.027 430.094,421.027 431.5,421.5C 432.674,422.514 433.34,423.847 433.5,425.5C 433.5,426.167 433.5,426.833 433.5,427.5C 432.265,427.279 431.265,426.612 430.5,425.5C 426.631,416.981 421.965,408.981 416.5,401.5C 414.256,397.686 412.589,393.686 411.5,389.5 Z"/></g>
<g><path style="opacity:0.156" fill="#e1e5eb" d="M 307.5,405.5 C 308.5,405.5 309.5,405.5 310.5,405.5C 312.216,405.629 313.883,405.962 315.5,406.5C 316.167,406.5 316.5,406.833 316.5,407.5C 318.475,409.137 320.475,410.804 322.5,412.5C 323.804,413.987 324.97,415.654 326,417.5C 326.812,421.689 326.645,425.689 325.5,429.5C 325.5,428.833 325.5,428.167 325.5,427.5C 325.813,424.753 325.48,422.086 324.5,419.5C 319.572,413.538 313.906,408.871 307.5,405.5 Z"/></g>
<g><path style="opacity:0.788" fill="#536a8b" d="M 316.5,407.5 C 319.958,407.414 321.958,409.081 322.5,412.5C 320.475,410.804 318.475,409.137 316.5,407.5 Z"/></g>
<g><path style="opacity:0.486" fill="#889bb0" d="M 422.5,406.5 C 423.906,406.973 424.573,407.973 424.5,409.5C 423.094,409.027 422.427,408.027 422.5,406.5 Z"/></g>
<g><path style="opacity:0.906" fill="#375177" d="M 403.5,406.5 C 404.89,407.899 405.89,409.566 406.5,411.5C 404.241,410.656 403.241,408.989 403.5,406.5 Z"/></g>
<g><path style="opacity:0.086" fill="#f9fafb" d="M 551.5,410.5 C 551.923,412.781 551.256,414.448 549.5,415.5C 549.402,413.447 550.069,411.78 551.5,410.5 Z"/></g>
<g><path style="opacity:0.502" fill="#607895" d="M 406.5,411.5 C 407.906,411.973 408.573,412.973 408.5,414.5C 407.094,414.027 406.427,413.027 406.5,411.5 Z"/></g>
<g><path style="opacity:0.376" fill="#aab6c6" d="M 551.5,406.5 C 551.5,407.5 551.5,408.5 551.5,409.5C 551.5,409.833 551.5,410.167 551.5,410.5C 550.069,411.78 549.402,413.447 549.5,415.5C 548.778,416.551 547.778,417.218 546.5,417.5C 547.93,413.646 549.597,409.979 551.5,406.5 Z"/></g>
<g><path style="opacity:0.502" fill="#8396ac" d="M 429.5,418.5 C 430.906,418.973 431.573,419.973 431.5,421.5C 430.094,421.027 429.427,420.027 429.5,418.5 Z"/></g>
<g><path style="opacity:0.096" fill="#eaedf0" d="M 549.5,415.5 C 547.556,421.373 544.89,426.707 541.5,431.5C 541.993,429.194 542.326,426.861 542.5,424.5C 543.906,424.027 544.573,423.027 544.5,421.5C 544.66,419.847 545.326,418.514 546.5,417.5C 547.778,417.218 548.778,416.551 549.5,415.5 Z"/></g>
<g><path style="opacity:0.651" fill="#506a89" d="M 411.5,419.5 C 412.906,419.973 413.573,420.973 413.5,422.5C 412.094,422.027 411.427,421.027 411.5,419.5 Z"/></g>
<g><path style="opacity:0.533" fill="#768aa3" d="M 544.5,421.5 C 544.573,423.027 543.906,424.027 542.5,424.5C 542.427,422.973 543.094,421.973 544.5,421.5 Z"/></g>
<g><path style="opacity:0.58" fill="#516a8a" d="M 413.5,422.5 C 414.906,422.973 415.573,423.973 415.5,425.5C 414.094,425.027 413.427,424.027 413.5,422.5 Z"/></g>
<g><path style="opacity:0.651" fill="#4e6888" d="M 415.5,425.5 C 416.906,425.973 417.573,426.973 417.5,428.5C 416.094,428.027 415.427,427.027 415.5,425.5 Z"/></g>
<g><path style="opacity:0.376" fill="#899bb0" d="M 433.5,425.5 C 434.906,425.973 435.573,426.973 435.5,428.5C 434.833,428.167 434.167,427.833 433.5,427.5C 433.5,426.833 433.5,426.167 433.5,425.5 Z"/></g>
<g><path style="opacity:0.58" fill="#486385" d="M 417.5,428.5 C 418.906,428.973 419.573,429.973 419.5,431.5C 418.094,431.027 417.427,430.027 417.5,428.5 Z"/></g>
<g><path style="opacity:0.092" fill="#b5beca" d="M 542.5,424.5 C 542.326,426.861 541.993,429.194 541.5,431.5C 541.672,432.492 541.338,433.158 540.5,433.5C 540.44,432.957 540.107,432.624 539.5,432.5C 538.482,433.193 537.482,433.859 536.5,434.5C 538.11,430.9 540.11,427.566 542.5,424.5 Z"/></g>
<g><path style="opacity:0.106" fill="#eef0f3" d="M 325.5,427.5 C 325.5,428.167 325.5,428.833 325.5,429.5C 324.517,433.469 322.517,436.802 319.5,439.5C 317.973,439.427 316.973,440.094 316.5,441.5C 316.167,441.5 315.833,441.5 315.5,441.5C 314.833,441.5 314.167,441.5 313.5,441.5C 317.559,436.783 321.559,432.116 325.5,427.5 Z"/></g>
<g><path style="opacity:0.486" fill="#768ba5" d="M 536.5,434.5 C 536.573,436.027 535.906,437.027 534.5,437.5C 534.427,435.973 535.094,434.973 536.5,434.5 Z"/></g>
<g><path style="opacity:0.502" fill="#8396ac" d="M 440.5,437.5 C 441.906,437.973 442.573,438.973 442.5,440.5C 441.094,440.027 440.427,439.027 440.5,437.5 Z"/></g>
<g><path style="opacity:0.502" fill="#7b8fa6" d="M 534.5,437.5 C 534.573,439.027 533.906,440.027 532.5,440.5C 532.427,438.973 533.094,437.973 534.5,437.5 Z"/></g>
<g><path style="opacity:0.647" fill="#57708e" d="M 319.5,439.5 C 319.027,440.906 318.027,441.573 316.5,441.5C 316.973,440.094 317.973,439.427 319.5,439.5 Z"/></g>
<g><path style="opacity:0.486" fill="#8093aa" d="M 532.5,440.5 C 532.573,442.027 531.906,443.027 530.5,443.5C 530.427,441.973 531.094,440.973 532.5,440.5 Z"/></g>
<g><path style="opacity:0.055" fill="#e5e8ec" d="M 13.5,443.5 C 12.5,444.167 11.5,444.833 10.5,445.5C 6.83333,447.167 4.16667,449.833 2.5,453.5C 1.83333,453.5 1.5,453.833 1.5,454.5C 0.833333,455.167 0.166667,455.833 -0.5,456.5C -0.5,454.833 -0.5,453.167 -0.5,451.5C 2.4232,449.585 5.08987,447.251 7.5,444.5C 9.39605,443.534 11.396,443.201 13.5,443.5 Z"/></g>
<g><path style="opacity:0.251" fill="#4c6788" d="M 13.5,443.5 C 25.5,443.5 37.5,443.5 49.5,443.5C 51.0276,444.309 52.6943,444.976 54.5,445.5C 54.5,445.833 54.5,446.167 54.5,446.5C 39.9153,444.209 25.2486,443.875 10.5,445.5C 11.5,444.833 12.5,444.167 13.5,443.5 Z"/></g>
<g><path style="opacity:0.094" fill="#f4f5f7" d="M 49.5,443.5 C 55.1252,442.549 59.1252,444.549 61.5,449.5C 59.1667,448.167 56.8333,446.833 54.5,445.5C 52.6943,444.976 51.0276,444.309 49.5,443.5 Z"/></g>
<g><path style="opacity:0.251" fill="#486486" d="M 313.5,441.5 C 314.167,441.5 314.833,441.5 315.5,441.5C 314.653,442.966 313.32,443.8 311.5,444C 249.812,444.181 188.145,444.681 126.5,445.5C 127.5,444.833 128.5,444.167 129.5,443.5C 190.921,444.136 252.254,443.469 313.5,441.5 Z"/></g>
<g><path style="opacity:0.992" fill="#012956" d="M 54.5,446.5 C 58.3043,448.966 60.971,452.299 62.5,456.5C 62.6469,461.214 62.3136,465.881 61.5,470.5C 60.8902,471.391 60.5569,472.391 60.5,473.5C 58.5,474.833 56.8333,476.5 55.5,478.5C 53.4561,479.508 51.4561,480.508 49.5,481.5C 37.3217,481.828 25.3217,481.495 13.5,480.5C 11.1917,479.207 8.85832,477.874 6.5,476.5C 5.83333,476.167 5.16667,475.833 4.5,475.5C 3.35034,472.702 2.01701,470.035 0.5,467.5C 0.5,467.167 0.5,466.833 0.5,466.5C 0.504537,462.466 0.837871,458.466 1.5,454.5C 1.5,453.833 1.83333,453.5 2.5,453.5C 5.5,451.167 8.16667,448.5 10.5,445.5C 25.2486,443.875 39.9153,444.209 54.5,446.5 Z"/></g>
<g><path style="opacity:0.353" fill="#8fa0b4" d="M 530.5,443.5 C 530.262,445.404 529.262,446.738 527.5,447.5C 527.738,445.596 528.738,444.262 530.5,443.5 Z"/></g>
<g><path style="opacity:0.101" fill="#e9ecf0" d="M 403.5,398.5 C 404.167,398.5 404.833,398.5 405.5,398.5C 405.52,400.143 404.853,401.476 403.5,402.5C 410.082,411.996 416.415,421.662 422.5,431.5C 430.506,441.839 439.506,451.172 449.5,459.5C 444.167,448.833 438.833,438.167 433.5,427.5C 434.167,427.833 434.833,428.167 435.5,428.5C 437.924,431.008 439.59,434.008 440.5,437.5C 440.427,439.027 441.094,440.027 442.5,440.5C 443.674,441.514 444.34,442.847 444.5,444.5C 444.427,446.027 445.094,447.027 446.5,447.5C 448.924,450.008 450.59,453.008 451.5,456.5C 451.427,458.027 452.094,459.027 453.5,459.5C 454.674,460.514 455.34,461.847 455.5,463.5C 455.678,464.695 456.011,465.862 456.5,467C 456.164,468.03 455.497,468.53 454.5,468.5C 453.089,466.086 451.089,464.419 448.5,463.5C 443.833,459.167 439.167,454.833 434.5,450.5C 433.92,448.251 432.587,446.585 430.5,445.5C 427.305,440.431 423.638,435.765 419.5,431.5C 419.573,429.973 418.906,428.973 417.5,428.5C 417.573,426.973 416.906,425.973 415.5,425.5C 415.573,423.973 414.906,422.973 413.5,422.5C 413.573,420.973 412.906,419.973 411.5,419.5C 410.89,417.566 409.89,415.899 408.5,414.5C 408.573,412.973 407.906,411.973 406.5,411.5C 405.89,409.566 404.89,407.899 403.5,406.5C 403.34,404.847 402.674,403.514 401.5,402.5C 401.733,400.938 402.4,399.605 403.5,398.5 Z M 449.5,459.5 C 449.369,460.376 449.702,461.043 450.5,461.5C 451.67,460.306 451.337,459.639 449.5,459.5 Z"/></g>
<g><path style="opacity:0.055" fill="#f3f4f7" d="M 540.5,433.5 C 537.857,437.435 535.19,441.435 532.5,445.5C 531.083,447.261 529.417,448.594 527.5,449.5C 527.5,448.833 527.5,448.167 527.5,447.5C 529.262,446.738 530.262,445.404 530.5,443.5C 531.906,443.027 532.573,442.027 532.5,440.5C 533.906,440.027 534.573,439.027 534.5,437.5C 535.906,437.027 536.573,436.027 536.5,434.5C 537.482,433.859 538.482,433.193 539.5,432.5C 540.107,432.624 540.44,432.957 540.5,433.5 Z"/></g>
<g><path style="opacity:0.647" fill="#4a6486" d="M 430.5,445.5 C 432.587,446.585 433.92,448.251 434.5,450.5C 432.413,449.415 431.08,447.749 430.5,445.5 Z"/></g>
<g><path style="opacity:0.486" fill="#899bb0" d="M 444.5,444.5 C 445.906,444.973 446.573,445.973 446.5,447.5C 445.094,447.027 444.427,446.027 444.5,444.5 Z"/></g>
<g><path style="opacity:0.49" fill="#445f81" d="M 10.5,445.5 C 8.16667,448.5 5.5,451.167 2.5,453.5C 4.16667,449.833 6.83333,447.167 10.5,445.5 Z"/></g>
<g><path style="opacity:0.071" fill="#e4e7ec" d="M 129.5,443.5 C 128.5,444.167 127.5,444.833 126.5,445.5C 122.5,447.5 119.5,450.5 117.5,454.5C 116.833,455.167 116.167,455.833 115.5,456.5C 115.215,454.712 115.548,453.045 116.5,451.5C 118.833,449.167 121.167,446.833 123.5,444.5C 125.396,443.534 127.396,443.201 129.5,443.5 Z"/></g>
<g><path style="opacity:0.141" fill="#cbd1d9" d="M 54.5,446.5 C 54.5,446.167 54.5,445.833 54.5,445.5C 56.8333,446.833 59.1667,448.167 61.5,449.5C 63.3435,451.279 64.0102,453.612 63.5,456.5C 63.1667,456.5 62.8333,456.5 62.5,456.5C 60.971,452.299 58.3043,448.966 54.5,446.5 Z"/></g>
<g><path style="opacity:0.49" fill="#4b6485" d="M 126.5,445.5 C 123.833,448.833 120.833,451.833 117.5,454.5C 119.5,450.5 122.5,447.5 126.5,445.5 Z"/></g>
<g><path style="opacity:0.486" fill="#8698ae" d="M 527.5,447.5 C 527.5,448.167 527.5,448.833 527.5,449.5C 526.167,450.5 524.833,451.5 523.5,452.5C 524.08,450.251 525.413,448.585 527.5,447.5 Z"/></g>
<g><path style="opacity:0.092" fill="#f5f5f7" d="M 527.5,449.5 C 526.34,453.998 523.674,457.331 519.5,459.5C 520.861,457.15 522.194,454.816 523.5,452.5C 524.833,451.5 526.167,450.5 527.5,449.5 Z"/></g>
<g><path style="opacity:0.502" fill="#8496ad" d="M 451.5,456.5 C 452.906,456.973 453.573,457.973 453.5,459.5C 452.094,459.027 451.427,458.027 451.5,456.5 Z"/></g>
<g><path style="opacity:0.251" fill="#7d90a7" d="M 1.5,454.5 C 0.837871,458.466 0.504537,462.466 0.5,466.5C 0.166667,466.5 -0.166667,466.5 -0.5,466.5C -0.5,463.167 -0.5,459.833 -0.5,456.5C 0.166667,455.833 0.833333,455.167 1.5,454.5 Z"/></g>
<g><path style="opacity:0.749" fill="#476083" d="M 117.5,454.5 C 117.313,460.212 117.646,465.879 118.5,471.5C 117.313,469.928 116.313,468.261 115.5,466.5C 115.5,463.167 115.5,459.833 115.5,456.5C 116.167,455.833 116.833,455.167 117.5,454.5 Z"/></g>
<g><path style="opacity:0.251" fill="#3a577b" d="M 62.5,456.5 C 62.8333,456.5 63.1667,456.5 63.5,456.5C 63.5,460.5 63.5,464.5 63.5,468.5C 62.6618,468.842 62.3284,469.508 62.5,470.5C 62.1667,470.5 61.8333,470.5 61.5,470.5C 62.3136,465.881 62.6469,461.214 62.5,456.5 Z"/></g>
<g><path style="opacity:0.353" fill="#b1bdcb" d="M 448.5,463.5 C 451.089,464.419 453.089,466.086 454.5,468.5C 451.911,467.581 449.911,465.914 448.5,463.5 Z"/></g>
<g><path style="opacity:0.212" fill="#c6ced8" d="M 523.5,452.5 C 522.194,454.816 520.861,457.15 519.5,459.5C 516.167,464.167 512.167,468.167 507.5,471.5C 506.833,471.5 506.167,471.5 505.5,471.5C 511.528,465.14 517.528,458.807 523.5,452.5 Z"/></g>
<g><path style="opacity:0.235" fill="#b9c3d0" d="M 455.5,463.5 C 457.316,465.118 458.649,467.118 459.5,469.5C 459.5,470.833 458.833,471.5 457.5,471.5C 456.167,470.833 455.167,469.833 454.5,468.5C 455.497,468.53 456.164,468.03 456.5,467C 456.011,465.862 455.678,464.695 455.5,463.5 Z"/></g>
<g><path style="opacity:0.094" fill="#edeff2" d="M -0.5,466.5 C -0.166667,466.5 0.166667,466.5 0.5,466.5C 0.5,466.833 0.5,467.167 0.5,467.5C 0.517151,469.565 0.850485,471.565 1.5,473.5C 0.833333,473.5 0.166667,473.5 -0.5,473.5C -0.5,471.167 -0.5,468.833 -0.5,466.5 Z"/></g>
<g><path style="opacity:0.486" fill="#8596ab" d="M 61.5,470.5 C 61.8333,470.5 62.1667,470.5 62.5,470.5C 62.573,472.027 61.9063,473.027 60.5,473.5C 60.5569,472.391 60.8902,471.391 61.5,470.5 Z"/></g>
<g><path style="opacity:0.812" fill="#566f8e" d="M 459.5,469.5 C 461.104,470.287 461.771,471.62 461.5,473.5C 459.62,473.771 458.287,473.104 457.5,471.5C 458.833,471.5 459.5,470.833 459.5,469.5 Z"/></g>
<g><path style="opacity:0.353" fill="#95a4b6" d="M 0.5,467.5 C 2.01701,470.035 3.35034,472.702 4.5,475.5C 3.5,474.833 2.5,474.167 1.5,473.5C 0.850485,471.565 0.517151,469.565 0.5,467.5 Z"/></g>
<g><path style="opacity:0.353" fill="#96a5b9" d="M 60.5,473.5 C 59.8333,476.167 58.1667,477.833 55.5,478.5C 56.8333,476.5 58.5,474.833 60.5,473.5 Z"/></g>
<g><path style="opacity:0.353" fill="#a2b0c1" d="M 505.5,471.5 C 503.761,474.243 501.427,476.243 498.5,477.5C 500.239,474.757 502.573,472.757 505.5,471.5 Z"/></g>
<g><path style="opacity:0.82" fill="#365177" d="M 121.5,475.5 C 124.192,477.206 126.859,478.872 129.5,480.5C 125.825,480.5 123.159,478.833 121.5,475.5 Z"/></g>
<g><path style="opacity:0.796" fill="#435d80" d="M 6.5,476.5 C 8.85832,477.874 11.1917,479.207 13.5,480.5C 10.1884,480.851 7.85504,479.518 6.5,476.5 Z"/></g>
<g><path style="opacity:0.055" fill="#f1f2f4" d="M 63.5,468.5 C 63.5439,475.454 60.2106,479.787 53.5,481.5C 54.1667,480.5 54.8333,479.5 55.5,478.5C 58.1667,477.833 59.8333,476.167 60.5,473.5C 61.9063,473.027 62.573,472.027 62.5,470.5C 62.3284,469.508 62.6618,468.842 63.5,468.5 Z"/></g>
<g><path style="opacity:0.119" fill="#f9fafb" d="M 505.5,471.5 C 506.167,471.5 506.833,471.5 507.5,471.5C 503.402,477.599 498.069,482.266 491.5,485.5C 491.062,485.565 490.728,485.399 490.5,485C 491.71,483.961 492.71,482.794 493.5,481.5C 495.749,480.92 497.415,479.587 498.5,477.5C 501.427,476.243 503.761,474.243 505.5,471.5 Z"/></g>
<g><path style="opacity:0.251" fill="#b4bfcc" d="M 55.5,478.5 C 54.8333,479.5 54.1667,480.5 53.5,481.5C 52.1667,481.5 50.8333,481.5 49.5,481.5C 51.4561,480.508 53.4561,479.508 55.5,478.5 Z"/></g>
<g><path style="opacity:0.486" fill="#a9b6c6" d="M 498.5,477.5 C 497.415,479.587 495.749,480.92 493.5,481.5C 494.585,479.413 496.251,478.08 498.5,477.5 Z"/></g>
<g><path style="opacity:0.251" fill="#cdd4dd" d="M 1.5,473.5 C 2.5,474.167 3.5,474.833 4.5,475.5C 5.16667,475.833 5.83333,476.167 6.5,476.5C 7.85504,479.518 10.1884,480.851 13.5,480.5C 25.3217,481.495 37.3217,481.828 49.5,481.5C 50.8333,481.5 52.1667,481.5 53.5,481.5C 46.5318,482.831 39.1984,483.497 31.5,483.5C 24.1667,483.167 16.8333,482.833 9.5,482.5C 4.99792,481.005 2.33126,478.005 1.5,473.5 Z"/></g>
<g><path style="opacity:0.251" fill="#bec7d3" d="M 115.5,466.5 C 116.313,468.261 117.313,469.928 118.5,471.5C 119.026,473.23 120.026,474.564 121.5,475.5C 123.159,478.833 125.825,480.5 129.5,480.5C 170.665,481.333 211.998,481.833 253.5,482C 254.416,482.278 255.082,482.778 255.5,483.5C 212.162,483.833 168.828,483.5 125.5,482.5C 118.623,479.418 115.29,474.084 115.5,466.5 Z"/></g>
<g><path style="opacity:0.502" fill="#667c97" d="M 261.5,484.5 C 263.027,484.427 264.027,485.094 264.5,486.5C 262.973,486.573 261.973,485.906 261.5,484.5 Z"/></g>
<g><path style="opacity:0.092" fill="#c6cdd6" d="M 493.5,481.5 C 492.71,482.794 491.71,483.961 490.5,485C 490.728,485.399 491.062,485.565 491.5,485.5C 491.5,486.833 490.833,487.5 489.5,487.5C 488.609,486.89 487.609,486.557 486.5,486.5C 488.55,484.453 490.883,482.786 493.5,481.5 Z"/></g>
<g><path style="opacity:0.502" fill="#8c9db1" d="M 486.5,486.5 C 485.738,488.262 484.404,489.262 482.5,489.5C 483.262,487.738 484.596,486.738 486.5,486.5 Z"/></g>
<g><path style="opacity:0.078" fill="#f6f7f8" d="M 486.5,486.5 C 487.609,486.557 488.609,486.89 489.5,487.5C 487.708,489.569 485.374,490.903 482.5,491.5C 482.5,490.833 482.5,490.167 482.5,489.5C 484.404,489.262 485.738,488.262 486.5,486.5 Z"/></g>
<g><path style="opacity:0.094" fill="#b3bdca" d="M 482.5,489.5 C 482.5,490.167 482.5,490.833 482.5,491.5C 481.833,491.5 481.5,491.833 481.5,492.5C 480.167,492.5 478.833,492.5 477.5,492.5C 478.659,490.75 480.326,489.75 482.5,489.5 Z"/></g>
<g><path style="opacity:0.094" fill="#e7eaee" d="M 255.5,483.5 C 257.5,483.833 259.5,484.167 261.5,484.5C 261.973,485.906 262.973,486.573 264.5,486.5C 267.515,488.674 270.849,490.341 274.5,491.5C 274.973,492.906 275.973,493.573 277.5,493.5C 277.842,494.338 278.508,494.672 279.5,494.5C 279.973,495.906 280.973,496.573 282.5,496.5C 283.514,497.674 284.847,498.34 286.5,498.5C 286.973,499.906 287.973,500.573 289.5,500.5C 289.973,501.906 290.973,502.573 292.5,502.5C 294.674,502.75 296.341,503.75 297.5,505.5C 293.883,505.517 290.55,504.517 287.5,502.5C 277.015,495.643 266.349,489.31 255.5,483.5 Z"/></g>
<g><path style="opacity:0.58" fill="#4d6788" d="M 274.5,491.5 C 276.027,491.427 277.027,492.094 277.5,493.5C 275.973,493.573 274.973,492.906 274.5,491.5 Z"/></g>
<g><path style="opacity:0.353" fill="#95a5b8" d="M 477.5,492.5 C 477.027,493.906 476.027,494.573 474.5,494.5C 474.973,493.094 475.973,492.427 477.5,492.5 Z"/></g>
<g><path style="opacity:0.096" fill="#f6f7f8" d="M 477.5,492.5 C 478.833,492.5 480.167,492.5 481.5,492.5C 478.971,494.933 475.971,496.599 472.5,497.5C 473.551,496.778 474.218,495.778 474.5,494.5C 476.027,494.573 477.027,493.906 477.5,492.5 Z"/></g>
<g><path style="opacity:0.502" fill="#5a7290" d="M 279.5,494.5 C 281.027,494.427 282.027,495.094 282.5,496.5C 280.973,496.573 279.973,495.906 279.5,494.5 Z"/></g>
<g><path style="opacity:0.514" fill="#637997" d="M 286.5,498.5 C 288.027,498.427 289.027,499.094 289.5,500.5C 287.973,500.573 286.973,499.906 286.5,498.5 Z"/></g>
<g><path style="opacity:0.502" fill="#8799af" d="M 289.5,500.5 C 291.027,500.427 292.027,501.094 292.5,502.5C 290.973,502.573 289.973,501.906 289.5,500.5 Z"/></g>
<g><path style="opacity:0.063" fill="#f2f4f6" d="M 297.5,505.5 C 298.167,505.5 298.833,505.5 299.5,505.5C 299.833,506.167 300.167,506.833 300.5,507.5C 298.821,507.715 297.821,507.048 297.5,505.5 Z"/></g>
<g><path style="opacity:0.471" fill="#778ba4" d="M 450.5,506.5 C 449.07,507.537 447.403,508.204 445.5,508.5C 446.635,506.787 448.302,506.12 450.5,506.5 Z"/></g>
<g><path style="opacity:0.063" fill="#d9dee5" d="M 474.5,494.5 C 474.218,495.778 473.551,496.778 472.5,497.5C 459.07,506.205 444.403,512.205 428.5,515.5C 429.5,514.833 430.5,514.167 431.5,513.5C 435.854,511.235 440.521,509.569 445.5,508.5C 447.403,508.204 449.07,507.537 450.5,506.5C 458.764,503.035 466.764,499.035 474.5,494.5 Z"/></g>
<g><path style="opacity:0.094" fill="#d5dbe2" d="M 299.5,505.5 C 305.911,508.44 312.578,510.773 319.5,512.5C 319.5,512.833 319.5,513.167 319.5,513.5C 312.523,513.284 306.189,511.284 300.5,507.5C 300.167,506.833 299.833,506.167 299.5,505.5 Z"/></g>
<g><path style="opacity:0.627" fill="#4d6788" d="M 319.5,513.5 C 319.5,513.167 319.5,512.833 319.5,512.5C 323.162,512.723 326.495,513.723 329.5,515.5C 328.833,515.5 328.167,515.5 327.5,515.5C 326.833,515.5 326.167,515.5 325.5,515.5C 323.786,514.262 321.786,513.595 319.5,513.5 Z"/></g>
<g><path style="opacity:0.063" fill="#e5e9ee" d="M 319.5,513.5 C 321.786,513.595 323.786,514.262 325.5,515.5C 322.918,515.975 320.918,515.308 319.5,513.5 Z"/></g>
<g><path style="opacity:0.875" fill="#304b71" d="M 330.5,515.5 C 334.79,515.198 338.79,515.864 342.5,517.5C 341.167,517.5 339.833,517.5 338.5,517.5C 337.5,517.5 336.5,517.5 335.5,517.5C 335.167,517.5 334.833,517.5 334.5,517.5C 333.167,516.833 331.833,516.167 330.5,515.5 Z"/></g>
<g><path style="opacity:0.157" fill="#c6cbd1" d="M 327.5,515.5 C 328.167,515.5 328.833,515.5 329.5,515.5C 329.833,515.5 330.167,515.5 330.5,515.5C 331.833,516.167 333.167,516.833 334.5,517.5C 331.612,518.01 329.279,517.344 327.5,515.5 Z"/></g>
<g><path style="opacity:0.22" fill="#a8b3c1" d="M 431.5,513.5 C 430.5,514.167 429.5,514.833 428.5,515.5C 425.664,516.776 422.664,517.442 419.5,517.5C 416.236,518.324 412.902,518.658 409.5,518.5C 416.738,516.859 424.071,515.193 431.5,513.5 Z"/></g>
<g><path style="opacity:0.084" fill="#e6eaee" d="M 335.5,517.5 C 336.5,517.5 337.5,517.5 338.5,517.5C 340.5,518.167 342.5,518.833 344.5,519.5C 340.988,520.055 337.988,519.388 335.5,517.5 Z"/></g>
<g><path style="opacity:0.345" fill="#677d99" d="M 338.5,517.5 C 339.833,517.5 341.167,517.5 342.5,517.5C 348.125,518.493 353.792,519.16 359.5,519.5C 359.5,519.833 359.5,520.167 359.5,520.5C 356.833,520.5 354.167,520.5 351.5,520.5C 349.393,519.532 347.059,519.198 344.5,519.5C 342.5,518.833 340.5,518.167 338.5,517.5 Z"/></g>
<g><path style="opacity:0.749" fill="#325075" d="M 401.5,518.5 C 400.737,519.268 399.737,519.768 398.5,520C 385.504,520.5 372.504,520.667 359.5,520.5C 359.5,520.167 359.5,519.833 359.5,519.5C 373.516,519.651 387.516,519.318 401.5,518.5 Z"/></g>
<g><path style="opacity:0.251" fill="#c1cad5" d="M 419.5,517.5 C 414.563,519.134 409.229,520.134 403.5,520.5C 386.005,521.827 368.671,521.827 351.5,520.5C 354.167,520.5 356.833,520.5 359.5,520.5C 372.504,520.667 385.504,520.5 398.5,520C 399.737,519.768 400.737,519.268 401.5,518.5C 404.167,518.5 406.833,518.5 409.5,518.5C 412.902,518.658 416.236,518.324 419.5,517.5 Z"/></g>
</svg>
